<?xml version="1.0" encoding="UTF-8"?><svg id="Layer_1" xmlns="http://www.w3.org/2000/svg" viewBox="0 0 2913 609"><defs><style>.cls-1,.cls-2{stroke-width:0px;}.cls-2{fill:#3533ff;}</style></defs><path class="cls-1" d="m44.92,242.14v297.51c0,14.09,11.42,25.51,25.51,25.51h613.63c.14,0,.25-.11.25-.25v-128.19c0-.14-.11-.25-.25-.25H172.81c-.14,0-.25-.11-.25-.25v-65.4c0-.14.11-.25.25-.25h511.11c.14,0,.25-.11.25-.25v-128.19c0-.14-.11-.25-.25-.25H45.17c-.14,0-.25.11-.25.25Z"/><rect class="cls-1" x="233.24" y="45.25" width="450.92" height="127.59" rx=".25" ry=".25"/><rect class="cls-2" x="44.92" y="45.25" width="128.93" height="128.91" rx=".25" ry=".25"/><path class="cls-1" d="m1510.91,45.25v519.9h127.43V176.89h368.92v388.27h127.58V70.39c0-13.88-11.25-25.14-25.14-25.14h-598.79Z"/><path class="cls-1" d="m2228.07,241.05v298.03c0,13.94,11.3,25.24,25.24,25.24h614.15v-128.68h-511.74v-65.9h511.6v-128.69h-639.24Z"/><rect class="cls-1" x="2229.14" y="44.42" width="638.18" height="127.59"/><path class="cls-1" d="m1285.2,178.44v257.19c0,1.14-.92,2.06-2.06,2.06h-374.9c-1.14,0-2.06-.92-2.06-2.06V178.44c0-1.14.92-2.06,2.06-2.06h374.9c1.14,0,2.06.92,2.06,2.06ZM777.59,47.31v492.58c0,13.95,11.31,25.26,25.26,25.26h611.79c1.14,0,2.06-.92,2.06-2.06V70.59c0-13.99-11.34-25.34-25.34-25.34h-611.72c-1.14,0-2.06.92-2.06,2.06Z"/></svg>