<svg xmlns="http://www.w3.org/2000/svg" id="uts-logo-primary" width="400" height="96">
  <defs>
    <style>
      .cls-2{fill:#f47920}
      .cls-3{fill:#961c1f}
      .cls-4{fill:#231f20}
      .cls-5{fill:#fff}
      .cls-6{fill:#003767}
      .cls-7{fill:#009a7a}
    </style>
  </defs>
  <g id="uts-logo-wordmark">
    <path id="wordmark--bottom" d="m320.94 76.7 2.15-.65V65.52c-.08-2.23-1.08-3.77-3.38-3.77-1.46 0-2.81.88-3.54 1.46v12.84l2.19.69v1.04h-9.26V76.7l2.19-.65V65.52c-.11-2.23-1.08-3.77-3.38-3.77-1.46 0-2.81.88-3.58 1.5v12.8l2.23.65v1.08h-9.46V76.7l2.34-.65V62.79l-2.34-1.46v-.58l6.5-2.11h.19l.27 3.58h.08c1.04-1.08 3.73-3.54 6.77-3.54 2.77 0 4.34 1.04 4.92 3.58h.11c1-1.04 3.65-3.58 6.77-3.58 3.38 0 5.27 1.69 5.27 6.19v11.19l2.42.69v1.04h-9.46v-1.08Zm-42.29-7.95c0-5.69 4.57-10.15 9.23-10.15s6.88 2.77 7.5 7.88H283v.35c0 5.04 3.04 7.88 6.77 7.88 2.31 0 4.11-1.27 5.27-2.15l.62.58c-1.62 2.38-4.11 5.19-8.38 5.19-5.46 0-8.61-4.5-8.61-9.57Zm4.42-3.54h7.15c-.35-3.11-1.46-5.11-3.5-5.11-1.88 0-3.31 1.77-3.65 5.11Zm-16.03 8.11.12-12.07h-2.84v-1.27l2.84-.88 3.96-4.77h.81v4.88h5.42v2.11h-5.42v12.26c.42 1.69 1.61 2.23 3.19 2.23 1.15 0 2.23-.38 2.35-.42l.23.88c-.73.5-2.88 2-6.04 2-3.38 0-4.65-1.88-4.61-4.96Zm-17.76 3.81-.23-5.88h.92l2.19 4.69c.54.58 1.54 1.12 2.77 1.12 2.19 0 3.5-1.38 3.5-3.11 0-1.46-.77-2.42-2.69-3.15l-2.54-.96c-2.58-.96-3.92-2.65-3.92-5.27 0-3.54 3.27-5.96 7.8-5.96 1.85 0 3.61.54 5 1.19l-.04 5.23h-.85l-1.96-4.11c-.62-.5-1.5-.96-2.58-.96-1.85 0-3 1.27-3 2.81 0 1.61 1 2.38 2.81 3.11l2.04.81c3.11 1.23 4.46 2.54 4.46 5.15 0 3.92-3.81 6.57-8.23 6.57-2.15 0-3.96-.61-5.46-1.27Zm-7.1-16.88v-1.04h6v1.08l-1.77.62-8.73 22.72c-.85 2.15-2.11 3.54-4.15 3.54-1.46 0-2.69-1.15-2.69-2.69s1.23-2.65 2.65-2.65c1.31 0 1.92.77 2.61 1.69l.11.15 1.69-4.34-7.27-18.53-1.61-.5v-1.08h9v1.08l-2.04.58 4.34 12.15 4.31-11.99-2.46-.77Zm-31.6 9.07h1.04l2.81 6.27c.92.73 2.31 1.42 4.38 1.42 2.84 0 4.81-1.85 4.81-4.61 0-2.04-.85-3.61-4.19-4.96l-2.08-.85c-4.27-1.73-6.07-4-6.07-7.38 0-4.04 3.61-7.73 9.53-7.73 2.46 0 4.77.96 6.23 1.69l.15 6.38h-1.08l-2.38-5.5c-.73-.65-1.73-1.23-3.27-1.23-2.77 0-4.5 1.85-4.5 4.11 0 2.42 1.23 3.5 4.46 4.92l2.31 1c4.5 2 5.8 4.04 5.8 6.96 0 5.34-5.11 8.61-10.11 8.61-3.11 0-5.54-1-7.34-1.85l-.5-7.27Zm-23.1 7.81-.23-5.88h.92l2.19 4.69c.54.58 1.54 1.12 2.77 1.12 2.19 0 3.5-1.38 3.5-3.11 0-1.46-.77-2.42-2.69-3.15l-2.54-.96c-2.58-.96-3.92-2.65-3.92-5.27 0-3.54 3.27-5.96 7.8-5.96 1.85 0 3.61.54 5 1.19l-.04 5.23h-.85l-1.96-4.11c-.62-.5-1.5-.96-2.58-.96-1.85 0-3 1.27-3 2.81 0 1.61 1 2.38 2.81 3.11l2.04.81c3.11 1.23 4.46 2.54 4.46 5.15 0 3.92-3.81 6.57-8.23 6.57-2.15 0-3.96-.61-5.46-1.27Zm-19.76-3.46c0-3.11 2.19-4.54 6.5-5.61l3.73-.92v-2.58c-.08-2.54-1.27-4.27-3.31-4.27-.88 0-1.54.27-1.96.58l-.15 4.23c-.54.19-1.27.35-2.11.35-1.31 0-2.19-.69-2.19-1.92 0-2.11 3.88-4.84 8.5-4.84 4.04 0 6.07 1.77 6.07 5.84v10.23c0 1.04.31 1.27 1.31 1.27h1.65v.77s-2.58 1.46-4.46 1.46c-2.08 0-3.08-1-3.19-3.08h-.19c-1.23 1.58-2.65 3.19-5.3 3.19s-4.88-1.73-4.88-4.69Zm10.23.35v-5.73l-2.54.85c-2.15.69-2.96 1.88-2.96 3.34 0 1.65.96 3 2.77 3 1.19 0 2.11-.69 2.73-1.46Zm-13.38 2.03 2.11.69v1.04h-9.34V76.7l1.77-.65-3.42-5.54h-.08l-3.69 5.46 1.96.77v1.04h-6.61v-1.04l2.46-.73 5.15-6.8-5.34-8.42-1.96-.58v-1h9.34v1l-1.81.62 3.04 4.99h.08l3.26-4.88-1.92-.73v-1h6.07v1l-2.03.62-4.69 6.26 5.65 8.96zm-35.1-7.3c0-5.69 4.57-10.15 9.23-10.15s6.88 2.77 7.5 7.88h-12.38v.35c0 5.04 3.04 7.88 6.77 7.88 2.31 0 4.11-1.27 5.27-2.15l.62.58c-1.62 2.38-4.11 5.19-8.38 5.19-5.46 0-8.61-4.5-8.61-9.57Zm4.42-3.54h7.15c-.35-3.11-1.46-5.11-3.5-5.11-1.88 0-3.31 1.77-3.65 5.11Zm-7.15-12.96 2.89-.19.07 7.69h-1.07l-2.27-5.96h-5.31v22.15l3.62.73v1.11H112.1v-1.11l3.65-.73V53.79h-5.31l-2.26 5.96h-1.08l.08-7.69 2.88.19h16.68z" class="cls-6"/>
    <g id="wordmark--top">
      <path d="m380.02 46.92 2.35-.65V31.39h-2.77V30.2l2.81-.88c.42-6.27 4.69-10.15 9.07-10.15 2.73 0 5.42 1.5 5.42 3.54s-1.96 2.54-3.73 2.27l-.88-3.58c-.54-.54-1.19-.85-2.04-.85-1.58 0-3.15 1.38-3.08 5.5l.04 3.38h5.07v1.81h-5.04v15.03l2.92.65V48h-10.15v-1.08Zm-21.41-7.85c0-5.77 4.38-10.23 9.88-10.23 5.84 0 9.84 3.81 9.84 9.42s-4.31 10.34-9.84 10.34c-6.34 0-9.88-4.58-9.88-9.53Zm5.23-2c0 5.04 1.81 10.15 5.27 10.15 2.5 0 4-2.84 4-7.04 0-5.88-2.23-10.03-5.27-10.03s-4 3.58-4 6.92Zm-18.68-6.61v-1.04h6v1.08l-1.77.62-8.73 22.72c-.85 2.15-2.11 3.54-4.15 3.54-1.46 0-2.69-1.15-2.69-2.69s1.23-2.65 2.65-2.65c1.31 0 1.92.77 2.61 1.69l.11.15 1.69-4.34-7.27-18.53-1.61-.5v-1.08h9v1.08l-2.04.58 4.34 12.15 4.31-11.99-2.46-.77Z" class="cls-6"/>
      <path d="m322.05 43.53.12-12.07h-2.84v-1.27l2.84-.88 3.96-4.77h.81v4.88h5.42v2.11h-5.42v12.26c.42 1.69 1.61 2.23 3.19 2.23 1.15 0 2.23-.38 2.35-.42l.23.88c-.73.5-2.88 2-6.04 2-3.38 0-4.65-1.88-4.61-4.96Zm-12.99 3.39 2.42-.65V33.01l-2.34-1.54v-.61l7.23-1.96v17.38l2.54.65v1.08h-9.84v-1.08Zm1.92-24.56c0-1.5 1.31-2.81 2.81-2.81s2.84 1.31 2.84 2.81-1.35 2.81-2.84 2.81-2.81-1.27-2.81-2.81Zm-17.56 24.98-.23-5.88h.92l2.19 4.69c.54.58 1.54 1.11 2.77 1.11 2.19 0 3.5-1.38 3.5-3.11 0-1.46-.77-2.42-2.69-3.15l-2.54-.96c-2.58-.96-3.92-2.65-3.92-5.27 0-3.54 3.27-5.96 7.8-5.96 1.85 0 3.61.54 5 1.19l-.04 5.23h-.85l-1.96-4.11c-.62-.5-1.5-.96-2.58-.96-1.85 0-3 1.27-3 2.81 0 1.61 1 2.38 2.81 3.11l2.04.81c3.11 1.23 4.46 2.54 4.46 5.15 0 3.92-3.81 6.57-8.23 6.57-2.15 0-3.96-.62-5.46-1.27ZM277 46.92l2.34-.65V33.01L277 31.55v-.58l6.57-2.11h.19l.19 5.04h.15l.5-1c1.65-3.15 2.77-4.04 4.54-4.04 1.35 0 2.58.88 2.58 2.42s-.92 2.46-2.61 2.84l-2.38-1.42c-.69.23-1.92 1.42-2.5 3.04v10.53l3.19.65V48H277v-1.08Zm-18.45-7.96c0-5.69 4.57-10.15 9.23-10.15s6.88 2.77 7.5 7.88H262.9v.35c0 5.04 3.04 7.88 6.77 7.88 2.31 0 4.11-1.27 5.27-2.15l.62.58c-1.62 2.38-4.11 5.19-8.38 5.19-5.46 0-8.61-4.5-8.61-9.57Zm4.42-3.54h7.15c-.35-3.11-1.46-5.11-3.5-5.11-1.88 0-3.31 1.77-3.65 5.11Zm-15.18 13.19-6.81-17.49-1.99-.62v-1.08h9.76v1.08l-2.5.62 3.88 11.14.31 1.04h.08l.38-1.07 3.89-11-2.58-.77v-1.04h6.46v1.08l-2.12.62-6.72 17.49h-2.04zM231.3 22.35c0-1.5 1.31-2.81 2.81-2.81s2.84 1.31 2.84 2.81-1.35 2.81-2.84 2.81-2.81-1.27-2.81-2.81Zm-1.92 24.56 2.42-.65V33l-2.34-1.54v-.61l7.23-1.96v17.38l2.54.65V48h-9.84v-1.08Zm-22.64.01 2.34-.65V33.01l-2.34-1.46v-.58l6.5-2.11h.19l.27 3.58h.08c1.04-1.08 3.73-3.54 6.77-3.54 3.34 0 5.27 1.69 5.27 6.19v11.19l2.38.69v1.04h-9.46v-1.08l2.19-.65V35.75c-.11-2.23-1.08-3.81-3.38-3.77-1.46 0-2.84.88-3.58 1.46v12.84l2.23.65v1.08h-9.46v-1.08Zm-24.26-8.61V24.39l-2.96-.81v-1.11h11.84v1.11l-3.46.81v13.38c0 5.11 1.96 8.53 6.46 8.53s6.88-2.73 7.04-7.84l-.04-13.84-4.23-1.04v-1.11h9.26v1.11l-2.96.88V37.8c0 7.15-4.15 10.99-10.53 10.99-7 0-10.42-3.81-10.42-10.49Zm-28.14.65c0-5.69 4.57-10.15 9.23-10.15s6.88 2.77 7.5 7.88h-12.38v.35c0 5.04 3.04 7.88 6.77 7.88 2.31 0 4.11-1.27 5.27-2.15l.62.58c-1.62 2.38-4.11 5.19-8.38 5.19-5.46 0-8.61-4.5-8.61-9.57Zm4.42-3.54h7.15c-.35-3.11-1.46-5.11-3.5-5.11-1.88 0-3.31 1.77-3.65 5.11Zm-15.22 11.5 2.19-.65V35.74c-.11-2.23-1.08-3.81-3.38-3.77-1.46 0-2.84.88-3.58 1.46v12.84l2.23.65V48h-9.46v-1.08l2.34-.65V23.55l-2.27-1.35v-.65l7.15-2.27v12.99c1.11-1.15 3.65-3.38 6.53-3.38 3.38 0 5.27 1.69 5.27 6.19v11.19l2.42.69V48h-9.46v-1.08Zm-16.8-24.45 2.89-.2.07 7.69h-1.07L126.36 24h-5.31v22.15l3.62.73v1.11H112.1v-1.11l3.65-.73V24h-5.31l-2.26 5.96h-1.08l.08-7.69 2.88.2h16.68z" class="cls-6"/>
    </g>
  </g>
  <g id="uts-logo-seal">
    <g id="seal-outer">
      <g id="seal-outer--bg">
        <path d="M46.9 95.2c6.4 0 12.4-1.2 18.3-3.7C70.7 89 75.8 85.7 80 81.3c4.3-4.4 7.7-9.4 10.1-15 2.4-5.9 3.7-12 3.7-18.4s-1.2-12.5-3.7-18.4C87.8 24 84.4 19 80 14.7 75.7 10.3 70.7 7 65.2 4.5 59.5 2.1 53.3.8 46.9.8S34.5 2 28.6 4.5C23.1 6.9 18 10.3 13.7 14.7 9.4 19 6.1 24 3.7 29.6 1.2 35.4 0 41.6 0 48s1.2 12.5 3.7 18.4C6 72 9.4 77 13.7 81.3 18 85.6 23 89 28.5 91.5c5.9 2.4 12 3.7 18.4 3.7" class="cls-1"/>
        <path d="M.9 48c0-6.2 1.2-12.3 3.7-18 2.3-5.5 5.7-10.5 9.8-14.7C18.6 11 23.5 7.7 29 5.4 34.7 3 40.7 1.7 46.9 1.7s12.3 1.2 17.9 3.7c5.5 2.4 10.4 5.7 14.6 9.9 4.3 4.3 7.6 9.2 9.8 14.7 2.4 5.7 3.7 11.7 3.7 18s-1.2 12.3-3.7 18c-2.3 5.5-5.7 10.4-9.8 14.7-4.3 4.3-9.1 7.6-14.6 9.9-5.7 2.4-11.7 3.7-17.9 3.7S34.6 93.1 29 90.6c-5.5-2.4-10.4-5.7-14.6-9.9-4.3-4.3-7.6-9.2-9.8-14.7C2.1 60.2.9 54.2.9 48" class="cls-3"/>
      </g>
      <path id="seal-outer--wordmark" d="M15.4 18.1c.2.1 1 .8.7 1-.3.1-.5-.2-1.1.3-.3.3-1 1.1-1.1 1.2-.2.2-.1.4 0 .6.1.3.9.8 1.1 1s.4.3.8-.1c.3-.4.7-1.1.8-1.3s.4-.3.6-.2c.1.1.3.5.7.8-.6.4-1.2 1.1-1.4 1.2-.2.2-.2.4-.1.5.1.3.9.9 1.1 1.1.2.1.4.2.6 0s1-1.2 1.3-2.5c.1.1.6 1.1.7 1.2.1.2.2.3-.1.5-.3.3-2.3 2.7-2.3 2.8-.1.1-.2.3-.4 0s-.5-.6-.9-1c-.3-.3-.8-.5-1-.7l-1-.4c-.1-.3-.3-.5-.4-.8-.5-.4-1.4-1-1.7-1.1-.3-.2-1-.3-.6-.7.9-1 2.9-3.2 3.1-3.6-.1-.1.2-.1.6.2M6 31.8c.1-.3.3-.4.9 0 .2.1 1 .4 1.2.4.3.1.2.3-.3.4-.3 0-1.1.4-1.2.7 0 .3.1.6.4.7.4.1.9.4 1.2.4s.5 0 .9-.1l.7.4c.3.1.8.4 1.2.5.5.2 1 .1 1.3.2.3 0 .3.3.2.4l-.5 1.6c-.1.1-.2.3-.3.1-.3-.2-.6-.5-1.1-.7-.4-.2-1-.3-1.2-.4l-1 .1c-.2-.3-.3-.4-.6-.6-.3-.1-.8-.3-1.2-.4-.3-.1-.6 0-.7.4s.3 1.4.7 1.7q.3.3-.1.2c-.3-.1-1-.3-1.3-.4-.7-.2-.7-.4-.6-.7-.1-.2 1.2-4.4 1.4-4.9M16.1 28c-.3-.1-.8-.2-1.2-.4-.3-.3-.9-.6-1-.8l-.6-.9c-.3 0-.5-.1-.9-.1-.5-.4-1.5-1.1-1.7-1.1-.2-.1-.3-.7-.3-1-.1-.3-1.8 2.6-1.5 2.5s.8-.2 1-.1c.2.2 1 .7 1.7 1.1 0 0 0 .1.1.1-.1.7-.8 2-1 2.2h-.2c-.6-.3-1.6-.9-1.8-1-.4 0-.6-.5-.7-.8-.1-.3-1.6 2.8-1.2 2.7.3-.1.8-.3 1-.2.2.1 1.1.5 1.7.9.2.2.3.4.5.7l1 .1c.2.1.8.4 1.2.5.4.3.8.7 1 .9.3.2.3 0 .3-.1l.7-1.5c0-.1.1-.3-.2-.4s-.9-.1-1.3-.3-.9-.5-1.1-.6c.1-.5.5-1.9.9-2.3h.2c.2.2.7.4 1.1.6.4.3.7.8.9 1 .2.3.3.1.4 0l.9-1.4c.2 0 .3-.2.1-.3M3.5 47.4c.2 0 1.3-.2 1.1.2-.1.3-.5.3-.6 1-.1.4 0 1.8 0 2s.2.4.4.4c.3.1.9.1 1.1 0 .3-.1.5-.1.4-.6 0-.5-.1-1.7-.2-1.9.1-.3.3-.5.5-.6.2 0 .6.2 1 .1-.2.8 0 2 0 2.2 0 .3.1.4.3.4.3.1 1.2 0 1.5-.1.2-.1 1-.4 1.2-.5s.3 0 .3.4.2 1.3.2 1.5c0 .1 0 .4-.3.3-.3-.1-.9-.4-1.4-.3-.4.1-1 .2-1.1.2l-1 .4c-.3-.1-.5-.2-.8-.3-.7.1-1.7.3-2 .4-.3.2-.9.4-.9-.1-.1-1.3-.2-4.4-.3-4.7 0-.2.2-.4.6-.4m8.3 9.2c-.2-.6-.6-1.8-1.4-2.1-.9-.3-1.7-.2-2.4-.2-.3 0-.9-.2-1.1-.5-.3.4-.7.9-1 1-.5 0-1.5.2-1.9.6s-.7 1.8-.3 3.1c.4 1.3 1 1.9 1.7 2.1s1.4.2 2 0c.5-.1.7 0 1.1.2.2-.2.6-.6 1-.8.3-.1 1.9-.7 2.3-1.3.3-.6.2-1.5 0-2.1Zm-2.3 1.2c-.7.3-1.1.3-1.7 0-.5.6-1.5.6-2 .6s-1-.4-1.1-.9c-.3-.6.1-1.1.7-1.4.6-.2 1.5-.1 2.1.2.3-.4.5-.6 1.4-.6 1 0 1.4.4 1.5.9.2.4-.3 1-.9 1.2Zm80.3-2.9c-.2 0-1.3 0-1.1-.4.2-.3.5-.2.7-.9.1-.4.3-1.8.3-1.9s-.2-.4-.3-.5c-.3-.1-.9-.2-1.1-.2-.3 0-.5 0-.5.5s-.2 1.7-.1 1.9c.1.3-.2.4-.3.4-.2 0-.6-.3-1-.3.3-.7.3-1.9.3-2.2s0-.4-.3-.5-1.2-.2-1.5-.2c-.2 0-1 .3-1.2.4-.2.1-.3-.1-.2-.5.1-.4 0-1.4 0-1.5s0-.4.3-.3c.3.1.8.4 1.3.5.4 0 1-.1 1.2 0l1-.1c.3.2.5.3.8.4.7 0 1.7 0 2.1-.1.3-.1 1-.4.9.2-.1 1.3-.3 4.3-.3 4.7-.4.5-.6.7-1 .6M90.9 44c-.3-1.3-.7-2-1.4-2.4-.7-.3-1.4-.4-1.9-.3s-.7-.1-1-.4c-.2.2-.7.5-1 .6s-2 .4-2.3 1.1c-.3.5-.4 1.4-.3 2.1s.3 1.8 1.1 2.2c.8.4 1.6.4 2.3.5.3 0 .8.3 1 .7.3-.3.8-.7 1.1-.8s1.4-.1 1.9-.4c.3-.3.8-1.6.5-2.9ZM89 45.8c-.6.3-1.4 0-2-.4-.4.4-.6.8-1.6.6s-1.2-.7-1.3-1.2c0-.5.5-1.3 1.1-1.5.7-.3 1.2-.2 1.7.2.6-.6 1.6-.5 2.1-.4s.9.5 1 1.1c0 .8-.4 1.3-1 1.6ZM18.7 81.7c.1-.2.7-1.1.9-.8.2.3-.1.5.3 1.1.3.4 1.1 1 1.3 1.1s.4.1.6-.1c.3-.2.7-1 .9-1.2.1-.3.3-.4-.2-.8-.4-.3-1-.6-1.3-.6-.3-.1-.3-.4-.2-.5.1-.2.5-.4.8-.8.5.6 1.1 1.1 1.3 1.3.2.2.3.2.5.1.3-.2.8-1 1-1.2.1-.2.2-.4 0-.6s-1.3-.9-2.5-1.1c.1-.1 1-.6 1.1-.8.2-.2.3-.2.6.1.3.3 2.9 2.1 3 2.2s.3.2 0 .4-.6.5-.9 1c-.3.4-.4.9-.6 1.1l-.3 1.1c-.3.1-.5.3-.7.4-.3.5-.9 1.4-1 1.8s-.3 1-.6.6c-1-.8-3.4-2.6-3.7-2.9-.6-.3-.6-.6-.3-.9m3.7-6.1c-.5-.4-1-.9-1.2-1.2-.2-.4-.4-.2-.5.3 0 .3-.2.4-1.1 1.1-.3.2-.4.1-.7-.1s-1-1.4-1-1.2c-.2-.2-.2-.4.1-.6.3-.4.4-.4.7-.5.3-.2.8-.4 1-.4.3 0 .3-.2-.1-.5-.2-.3-.7-.8-.8-1.1-.2-.3-.3-.3-.4 0s-.5.6-1 .9c-.3.3-.5.4-.8.6-.2.2-.9.1-.9.1-.1.3-.1.6-.3.8-.5.4-1.8 1.3-2.2 1.5-.6.3-1.1.2-.8.6.9 1.1 3.3 4 3.7 4.2.2-1.1 2.5-1.6 2.9-1.7.5-.2.5-.1.7 0 .1-.4.1-.6.4-1.1.3-.4 1.6-1.2 1.4-1.1s.3-.2.6-.1c.5 0 .3-.4.3-.5Zm-4.9 1.5c-.3.1-1.7.3-2.2.1s-.6-.5-.7-.9 1.7-1.3 2.1-1.4c.3.2.8.9 1 1.4.3.4.3.7-.2.8Zm14.4 7.3c.1-.3.5-1.8.6-2.1.2-.3-.1-.4-.2-.4-.2 0-.5 0-.9-.4-.3-.4-1.9-1.3-2.8-1.1s-2.2.8-2.2 1.9.3 1.6.7 1.8l.3 1.1c.5 0 1 .1 1.2.3.3.2.7 1 .3 1.5-.3.5-1.2.6-2 .1-.8-.4-1.3-1.2-1.2-1.9.1-.4 0-.6-.3-.3-.2.4-.9 1.7-1 1.8-.1.2.2.2.3.2s.4 0 .7.4 1.3 1.7 2.9 1.7 2.8-.7 2.7-2c-.1-.9-.6-1.4-1-1.8l-.3-1c-.4 0-1.5-.3-1.6-.8s-.1-1.4.9-1.5c1-.2 1.6.4 1.9.9s.4 1.2.4 1.6c.2.2.4.4.6 0m-17-18.3c-.1-.2-.3-.3-.4-.2-.2 0-.6.2-1.3.3 1 .3 1.9 1.9 2 2 .2.4-.1.7-.3.9-.3.3-.9.5-1 .7l-1 .2c-.1.3-.3.5-.4.7-.5.4-1.5 1-1.7 1.1-.2.2-.7 0-1 0s1.7 2.7 1.8 2.4.1-.9.3-1 1-.8 1.6-1.1c.3-.1.5-.1.8-.2l.5-.9c.2-.1.6-.5 1-.8s1-.4 1.2-.5c.3-.1.2-.3.1-.4 0 .1-1.9-2.5-2.2-3.2m66.8 8.2c-.2-.1-1.1-.6-.9-.8.3-.2.5.1 1-.4.3-.4.9-1.2 1-1.4s.1-.4-.1-.6-1-.7-1.3-.8c-.3-.1-.4-.2-.8.3-.3.4-.5 1.1-.5 1.4-.1.3-.3.4-.5.3s-.4-.5-.8-.7c.6-.5 1-1.2 1.1-1.4s.2-.4 0-.5c-.2-.2-1-.8-1.2-.9s-.4-.1-.6.1-.8 1.4-.9 2.6c-.1-.1-.7-1-.9-1.1-.2-.1-.2-.3 0-.6.3-.4 1.9-3 1.9-3.1.1-.1.2-.3.3-.1.2.2.6.5 1 .8s.9.4 1 .5l1 .3c.2.3.3.4.5.7.6.4 1.5.8 1.9.9.3.1 1 .2.7.6-.7 1.1-2.3 3.7-2.5 4 .2.1-.1.2-.4-.1m-3.4 4.8c-.3-.1-.7-.4-.8-.6-.1-.2-1.1-2.1-.9-2.4.3-.3 2.2.9 2.4 1 .2.2.2.7.3.9 0 .3 2.3-2.2 2-2.2s-.9.1-1-.1c-.2-.2-1.7-.3-2.2-.6-.2-.3-.4-.6-.4-1.1l-1-.1c-.2-.2-.8-1.5-.9-2s-.2-.8-.4-.6c-.3.2-.9 1.1-1 1.1 0 0-.2.4 0 .5.2.2 1 1.5.6 1.8-.3.4-1.6-.7-1.7-.8s-.3-.1-.4 0-1 1.1-1.2 1.2c-.3.2 0 .2.5.3.5.1 1.4.5 2.2.8l.3 1c.3.1.5.2.8.4.3.5.9 1.7 1 1.8s0 .8-.1 1.1c-.1.3 2.2-1.3 1.9-1.4m-5.4.4c-.1-.5 0-.5 0-.7-.4-.1-.6-.1-1-.5-.3-.3-1.1-1.5-1-1.4 0-.1-.1-.4 0-.6.1-.3-.3-.2-.4-.1-.4.5-.9 1-1.3 1.1-.3.2-.3.4.3.5.3 0 .3.3 1 1.2.2.3.1.4-.1.7-.2.2-1.5 1-1.3.9-.2.2-.3.1-.6-.1-.5-.2-.5-.5-.7-.6-.2-.3-.3-.8-.3-1.1 0-.2-.2-.3-.5 0-.3.2-.8.6-1.1.8-.3.1-.3.4 0 .4.3.1.5.6.9 1.1.3.4.4.6.5.8.2.2 0 .9 0 .9.3.2.6.2.8.4.3.5 1.2 1.9 1.3 2.3.2.6.1 1.1.6.8 1.2-1 4.3-3.2 4.4-3.7-1.2-.4-1.4-2.7-1.5-3.1Zm-2.1-2.6Zm.9 6.4c-.2.5-.5.6-.9.6-.3.1-1.2-1.8-1.3-2.1.2-.4.9-.7 1.4-1 .3-.2.6-.2.8.3.1.2.1 1.7 0 2.2Zm-6.4-.6c-.1-.2-1-1.6-1.2-1.8-.1-.3-.3-.3-.4-.2-.1.1-.3.4-.9.4-.5 0-2.3.6-2.7 1.3-.4.8-.9 2.2 0 2.9.9.7 1.4.8 1.7.7l1 .5c.3-.4.7-.7 1-.7s1.2.2 1.4.7c.2.6-.3 1.3-1.2 1.6s-1.8.2-2.2-.4c-.2-.3-.5-.4-.3 0s.6 1.8.7 2c.1.2.3 0 .3-.1.1-.2.3-.3.7-.3s2.1.1 3.1-1.1c1-1.1 1.3-2.5.3-3.3-.7-.5-1.5-.4-2-.5l-.9-.4c-.3.3-1.1 1-1.7.6-.4-.4-1-.8-.5-1.7.5-.9 1.3-1 1.9-.9.6.1 1.2.4 1.5.7.4.3.7.3.4 0m20.5-14.5c-.2.2-.3.4-.9-.1-.2-.2-.9-.4-1.1-.6-.3-.2-.1-.4.3-.3.3 0 1.2-.2 1.3-.5.2-.4 0-.7-.3-.8-.3-.2-.8-.4-1.1-.6h-.9l-.6-.5c-.3-.1-.7-.4-1.1-.6-.4-.3-1-.3-1.3-.4-.3-.1-.2-.3-.2-.4l.7-1.5c.1-.1.2-.3.3-.1.2.2.5.6 1 .9.4.2 1 .4 1.1.5l1 .1c.2.3.3.4.5.7.3.2.8.4 1.1.5.3.2.6 0 .8-.4.2-.4-.2-1.5-.4-1.8-.3-.3-.3-.4.1-.2.3.1 1 .4 1.2.5.7.3.7.4.5.8.1.4-1.7 4.4-2 4.8M31.7 6.7c0 .5.2 3.1 1.4 3.7 0 0-.3.5-.1.8.8 1.4.9 2.9-1 3.9-2 1.1-3.1.3-3.9-1.6l-.7-.5c.1-1.3-.3-2.5-2-3.2L28 8.4c-.1.4-.1 1 .1 1.3.2.4.6 1.3.8 1.6.3.5.9.5.9.5-.2.5-.2 1 .1 1.3.2.4.4.7.6.9.3.2.6.4 1 .2.4-.4.8-.4.6-1.1-.1-.4-.3-.9-.5-1.1-.2-.2-.3-.4-.6-.5.1-.3.1-.6 0-1.1-.2-.5-.6-1.5-.7-1.8-.2-.3-.4-.5-.8-.6l2.2-1.3Zm7.2 2c.3.2.5.2.5-.1 0-.2-.1-.8-.2-1.3s-.3-1.5-.4-1.8c-.1-.3-.3-.6-.6-.8l2.6-.4c-.1.5-.3 2.9.7 3.8 0 0-.3.5-.3.9.2 1.2.1 1.4.3 3-.5.2-1 .2-1.5.4-.3-.3-2.5-2.9-2.8-3.1-.3-.3-.5-.1-.4.2.1.4.6 2.2.7 2.5 0 .2.3.4.4.5.2.1.3.4-.2.4-.4.1-1.1.4-1.3.4-.1 0-.3.1-.3-.3s.1-.9-.1-1.3c-.1-.4-.3-1-.4-1.2l-.7-.9c.1-.3.1-.5.2-.9l-.7-2.1c-.1-.3-.5-.4-.8-.6l2.5-.8 2.8 3.5ZM61 6.9c-.1.2-.3 1.2-.5 1.1-.3-.2-.1-.5-.7-.9-.4-.2-1.4-.4-1.6-.5-.2-.1-.4.1-.5.3-.2.2-.3 1.1-.3 1.5 0 .3-.1.5.4.6.5 0 1.2.1 1.4 0 .3 0 .4.3.3.4 0 .2-.3.5-.4 1-.7-.4-1.5-.6-1.7-.7-.2-.1-.4-.1-.4.1-.2.2-.4 1.1-.4 1.5 0 .2 0 .4.3.5.2.1 1.6.4 2.7.1 0 .2-.7 1-.8 1.1-.1.2-.2.3-.5.1-.4-.2-3.4-1-3.5-1s-.3-.1-.2-.4c.2-.3.3-.7.4-1.2.1-.4.1-1 .2-1.1L55 8.3c.2-.2.3-.4.5-.7.2-.6.3-1.7.3-2.1s-.1-1 .3-.9c1.3.4 4.2 1.2 4.5 1.3.4.3.5.5.4 1m-15.7 4.6c.1 0 .3-.1.3-.4-.1-.3-.3-.8-.4-1.3V8.5l.3-1c-.2-.3-.3-.4-.4-.7-.1-.7-.1-1.8-.2-2 0-.3.3-.6.5-.9.2-.2-3.2.2-3 .4.3.3.7.5.7.8s.1 1.3.2 1.9c-.1.3-.2.5-.3.8l.5 1c0 .3.2.8.2 1.3s-.2 1.1-.2 1.3c-.2.3 0 .3.1.3l1.7-.2Zm28.1 11.4c.1.1.3.2.4-.1.2-.3.3-.8.7-1.1s.8-.7 1-.9l1-.4c.1-.3.2-.5.3-.8.4-.4 1.3-1.2 1.5-1.4.2-.2.7-.2 1-.2s-2.2-2.4-2.2-2 0 .9-.2 1c-.2.2-.9 1-1.4 1.4-.3.1-.5.3-.8.3l-.3 1c-.2.2-.5.6-.9 1s-.9.5-1.1.7c-.3.2-.1.4-.1.4l1.1 1.1Zm13.1 5.8c-.1.2-.3.5-.4.5-.2 0-1.1.3-1.7.4-.3-.1-1.4.2-1.6 0s.6-1.1.7-1.2c.3-.4 1-1.1 1.2-1.2.1-.2.8-.1 1-.1s-1.2-2.5-1.3-2.2-.3.9-.3 1.1c-.2.1-.7.8-1.1 1.2-.2.1-.6.3-.9.3l-.2.9c-.2.1-.4.5-.7.9-.3.1-.4.5-.9.7-.4.3-1 .4-1.2.4-.3.1-.2.3-.2.4l.9 1.4c.1.1.2.3.3.1s.5-.6 1-1c.4-.3.9-.4 1-.4h1l.9.4c.2-.1.8-.3 1-.4.5-.1 1.5-.1 1.7-.1s.6.3.9.4c.2 0-1.1-2.5-1.1-2.5M51.4 4.2c.2.3.4.6.3.9-.1.3-.3 1.2-.6 1.8-.2.3-.6 2.5-1 2.5-.3 0-.4-2.2-.6-2.5-.1-.7-.1-1.8-.2-2 0-.3.3-.6.5-.8.2-.2-3.2-.3-3 0 .2.3.7.6.7.8 0 .3.1 1.3.2 1.9-.1.3-.2.5-.3.8l.5 1c0 .3.2.9.2 1.3v1.2c-.1.3.2.3.3.4l1.4.1.1-.1 1.2.2c.1 0 .3 0 .3-.3s-.1-.8.1-1.3c.1-.4.6-1.1.7-1.4l.8-.9V7c.2-.6.6-1.8.6-1.9.1-.3.6-.5.8-.7.2 0-3.2-.5-3-.2m16.3 8.4c.2-.2.3-.3.5-.4-.1-.2-.2-.2-.2-.7 0-.4-.1-1.1-.1-1.3-.1-.5-.6-1.1-.9-1.1-.5-.4-2.3-1.3-3.6-1.8-.5-.3-.3.3-.4.9 0 .4-.6 1.8-.9 2.5-.2.3-.4.4-.7.5 0 0 .3.6.2.9s-.2.4-.3.9c-.2.4-.3 1-.6 1.1-.3.2-.3.4.1.4.3.1 1 .4 1.2.5.3.2.6.1.5-.1 0-.3-.1-1 0-1.2s.3-.7.6-1.1.6-.1.8.2c.1.4.2 1.6.3 2.5.1.7.5 1.1 1.4 1.6 0 0 .5.1.3-.2-.3-.6-.3-1.4-.2-3.3.6-.1 1.9-.8 2-.8Zm-2.3-.7c-.6.2-1.5-.1-1.7-.4 0-.4.5-2.4.9-2.4.4-.1 1.4.5 1.7 1 .3.4.1 1.1-.1 1.3-.2.3-.5.4-.8.5Zm2.7 3.5c-.1.2-.8 1.8-1 2-.2.3 0 .4.1.4.2 0 .5.1.8.5s1.7 1.7 2.5 1.6c1 0 2.3-.4 2.4-1.5.2-1.1-.1-1.6-.3-1.8v-1.1c-.5-.1-1-.3-1.1-.5-.2-.3-.5-1.1-.1-1.6s1.3-.4 2 .3c.7.6 1 1.5.9 2.1-.1.4-.1.6.2.3.3-.4 1.1-1.5 1.3-1.7.2-.2-.1-.3-.3-.3s-.4-.1-.6-.5-1-1.8-2.5-2.2c-1.6-.3-2.9.2-3 1.5-.1.8.3 1.5.6 1.9l.1 1c.4.1 1.4.5 1.4 1.1 0 .5-.2 1.4-1.1 1.3-1 0-1.5-.6-1.7-1.1-.3-.5-.3-1.2-.2-1.7-.1-.2-.2-.4-.4 0m15.4 7.9c.1.3.3.4-.4.8-.2.1-.8.6-1 .8-.3.2-.3 0-.2-.4s.3-1.1.1-1.5c-.3-.3-.6-.4-.8-.1-.3.3-.8.5-1 .8s-.3.4-.4.8l-.8.3c-.2.2-.7.4-1 .7-.4.4-.7.8-.9 1.1-.2.3-.3.1-.4 0l-1-1.2c-.1-.1-.2-.3.1-.4.3-.1.8-.2 1.2-.5.3-.3.8-.7 1-.9l.5-1c.3 0 .5-.1.8-.2.3-.2.7-.5 1-.8.3-.2.3-.5 0-.8-.3-.4-1.4-.4-1.7-.4s-.3.1-.1-.2c.3-.2.8-.8 1-1 .5-.5.7-.4 1-.2 0 .5 2.7 3.9 3 4.3M52.9 88l.9-1-1.3.2-.6-1.2-.3 1.3-1.3.2 1.2.7-.2 1.3 1-1 1.2.7-.6-1.2zM40 87.8l-1-.9 1.4.2.6-1.2.2 1.3 1.4.2-1.2.7.2 1.3-1-1-1.2.7.6-1.3zm44.7-51.6-1.1-.8H85l.4-1.3.5 1.3h1.3l-1.1.8.4 1.3-1.1-.9-1.1.9.4-1.3zM10.3 65l-1.4.2 1.1-1-.6-1.2 1.2.7.9-1-.2 1.3 1.2.7-1.4.2-.3 1.3-.5-1.2zm75.8-7 1.1.7-1.3.1-.4 1.3-.5-1.2h-1.3l1-.8-.5-1.3 1.1.7 1.2-.9-.4 1.4zM22.2 16.9l-1.4.1 1.1-.9-.5-1.3 1.2.8 1-.9-.3 1.4 1.1.7H23l-.3 1.4-.5-1.3zM7 43l-1.2-.6 1.4-.3.2-1.3L8 42l1.4-.2-1 1L9 44l-1.2-.6-1 1L7 43z" class="cls-5"/>
    </g>
    <g id="seal-inner">
      <g id="seal-inner--bg">
        <path d="M46.7 82.4c9.1 0 17.6-3.5 24.1-10.1 6.4-6.5 10-15.1 10-24.2s-3.5-17.7-10-24.3c-6.4-6.5-15-10.1-24.1-10.1s-17.6 3.5-24.1 10.1c-6.4 6.5-9.9 15.1-9.9 24.3s3.5 17.7 10 24.2c6.3 6.5 14.8 10.1 24 10.1" class="cls-1"/>
        <path d="M13.6 48.1c0-8.9 3.4-17.3 9.7-23.6s14.6-9.7 23.4-9.7 17.2 3.4 23.4 9.7c6.2 6.3 9.8 14.7 9.8 23.6s-3.4 17.3-9.8 23.6c-6.2 6.3-14.6 9.8-23.4 9.8s-17.2-3.4-23.4-9.8c-6.2-6.3-9.7-14.7-9.7-23.6" class="cls-6"/>
      </g>
      <path id="seal-inner--disciplina" d="M27.6 69.2c-.1.1-.2 0-.2 0l-.1-.2-.1-.2c.1-.2.1-.4.1-.4 0-.1-.1-.3-.2-.3-.1-.1-.3-.4-.4-.4-.1-.1-.3-.1-.4.1-.1.1-.1.3.1.5l.5.5c-.1.2-.2.6-.1.9.2.3 0 .5-.1.7-.2.2-.1.4-.1.4-.1 0-.3-.1-.4.2-.3.3-1.5.5-2.1-.1-.7-.7-.3-.7-.5-.9-.2-.2-.4-.2-.6-.3s-.2-.2 0-.3c.2-.2.7-.8.9-.9.2-.2.3-.3.4-.1.1.1.1.3 0 .4-.1.2-.2.5.2.8.3.3.6.2.8.1.2-.2.1-.5 0-.6s-.3-.2-.4-.3 0-.4-.1-.7-.4-.7.4-1.4 2.1-.3 2.5.1c.3.3.7.8.7.8.1.1.3.5.3.7-.1.2 0 .3-.1.4-.5 0-.8.3-1 .5m-3.2-2.7c-.2.1-.3.3-.3.4-.1-.1-.9.1-1.1.3-.3.2-1.6.6-2.1-.2-.6-.8-.3-.9-.4-1.1-.2-.3-.3-.3-.5-.4-.2-.2 0-.3.1-.4.2-.1.9-.6 1-.8.2-.2.3-.2.4 0s0 .3-.1.4c-.1.2-.4.6-.1 1 .3.3.5.4.7.3.4-.3.5-.6.6-.9.3 0 .6.2.9 0s.4-.7.3-1c-.1-.3-.7-.2-1-.5s1.4-.8 2.1-.2c.7.7.8 1.6.5 2.1-.4.5-.8.9-1 1m-4.5-2c.2-.3.9-.7 1.2-.8.3-.1.4-.1.6 0 .1-.2.2-.4.5-.6.3-.2 1-.5 1.2-.6.2 0 .4-.2.3-.4-.2-.3-.6-1-.7-1.2-.1-.3-.4-.3-.6 0-.3.3-.8.6-1 .7-.3.1-.6.1-.7 0-.3.3-.3.5-.6.7-.3.2-.8.4-.9.4s-.8-.1-.6.4c.2.4.5.9.8 1.4.2.4.3.2.5 0m-3.1-7.4c.3-.2 1-.4 1.4-.4.3 0 .4.1.5.2.2-.2.3-.3.6-.4.3-.1 1.1-.3 1.3-.2.2 0 .5 0 .4-.3s-.6-2.3-.6-2.6-.5-.3-.6-.3c-.2 0-.4 0-.5.1 0 0-.3.3 0 .7s.3 1 .3 1c-.3.1-.4.1-.6.1-.3 0-.6-.1-.7-.2-.3.3-.4.3-.8.5-.3.1-.9.2-1 .2-.2-.1-.7-.3-.7.2s.2.9.3 1.4c.2.3.4.1.7 0m-.9-4.4c.3-.2 1.1-.3 1.4-.3s.4.2.5.2c.2-.2.3-.3.7-.3.3 0 1.2-.1 1.3 0 .2 0 .4.1.4-.3s-.1-1.1-.1-1.5c0-.3-.3-.5-.6-.3s-1 .3-1.2.2c-.3 0-.6-.2-.6-.3-.4.2-.5.3-.9.3-.3.1-.9.1-1 0-.2-.1-.7-.3-.7.1s.1 1 .2 1.6c.1.8.3.7.6.6m4.1-7.2c.1-.3-.1-.5-.5-.3-.3.2-.9-.1-1.2-.2s-.6-.3-.7-.3c-.4.1-.5.3-.9.3s-.9-.1-.9-.2c-.2-.1-.6-.5-.7 0-.1.5.1.9 0 1.5-.1.3.4 0 .9.1h1.4v.1l-1.6.9c-.5.1-.8.2-.8.6-.1.4 0 .7.1 1.2s.3.5.6.3 1.1-.2 1.4-.2.4.2.5.3c.2-.1.3-.3.7-.3s1.2 0 1.3.1c.2 0 .4.1.4-.3v-1.2c.1-.3-.2-.5-.6-.3-.3.2-.9.2-1.3.2-.1 0-.1-.1-.1-.1l1.3-.9c.2-.2.5-.3.5-.5.3 0 .1-.6.2-.8m7.7 27.6c.1-.3.7-.9.9-1.1.3-.2.4-.2.5-.2.1-.3.1-.4.3-.7l.9-.9c.1-.1.4-.3.2-.5-.3-.3-.9-.8-1-.9-.2-.2-.5-.2-.6.2-.2.4-.6.9-.8 1s-.5.3-.7.3c-.2.4-.2.6-.3.9s-.6.7-.8.7c-.2.1-.8.2-.4.5.3.3.8.8 1.2 1.1.3.1.5-.1.6-.4m-5.2-13.4-.4-1.2c0-.1-.2-.2-.3-.1l-1.2.4c-.1 0-.2 0-.3-.1l-.3-1c-.2-.4-.9-.7-1.5-.6h-.4c-.2.1-.2.3-.3.3-.8.5-1 1-.8 1.7.3.8.9 2.2.9 2.2 0 .1.2.4.4.3s.3-.4.5-.5c.3-.1.8-.3.9-.3.2-.1.4.1.8.1.2-.3.3-.5.4-.5.2-.1 1.4-.5 1.4-.5.2.1.3-.1.2-.2Zm-3.9 0c-.1-.1-.2-.3-.2-.3-.2-.3 0-.5.4-.7.2-.1.5 0 .6.2l.2.4-1 .4Zm2-19.5c-.3 0-.7-.1-1-.2s-.5-.4-.7-.7c-.3.2-.7.3-.9.2-.2-.2-.9-.3-1.3-.7-.4-.3-.3-.1-.5.3s-.7 2.6-.8 3.3.3.6.5.5.4-.1.8.2.8.9.9 1.1c.3-.2.4-.2.6-.2.3 0 .6.1.9.2l1.3.2.1-.2c-.2-.3-.1-1 0-1.2s-.2-.3-.3-.3-.3-.1-.7-.2c-.3-.1-.4-.3-.3-.6 0-.3.2-.2.3-.1.1.1.4.3.8.4.3.2.6-.1.6-.3 0-.3.2-1.1.3-1.3-.1-.1-.3-.5-.6-.4Zm-2.9 1.7c0 .1-.3.1-.3.1-.6-.3-.6-.6-.6-.9 0-.2.1-.2.2-.2 0 0 .3.1.7.2.1 0 .2.1.2.3-.1.1-.2.4-.2.5Zm16.8 30.5c-.3-.2-1.9-1.1-2.1-1.3-.2-.2-.9-.3-1.3-.2-.3.3-.8.6-1 .7-.3.2-.6.3-.8.3-.1.4 0 .6-.2.9-.1.3-.2.8-.3 1.1 0 .3.5 1 .9 1.3.3.3 1.7 1.1 2.2 1.3.5.3.6.1.6-.3 0-.3.3-.8.5-1 .2-.3.5-.4.6-.4 0-.3.1-.6.3-.9s.4-.9.6-.9c.1-.2.4-.5 0-.6Zm-2.1.4c-.1.1-.2.3-.3.4-.1.3-.1.5-.2.6-.1 0-.3.1-.3.3-.1.1-.3.4-.3.6s-.1.3-.3.4c-.2-.1-.3-.3-.4-.4s-.1-.3 0-.5q.1-.3.2-.5t.2-.4c.1 0 .3-.2.3-.3s.1-.2.3-.3c.2-.2.5-.3.6-.3.2 0 .3.1.4.2 0-.1-.1.1-.2.2Z" class="cls-5"/>
      <path id="seal-inner--civitas" d="M61.4 72.4c0 .1-.1.2-.1.2l-.2.1H61c-.2-.1-.4-.3-.4-.3-.1 0-.3 0-.3.1-.1 0-.5.3-.6.3-.1.1-.2.3-.1.4.1.1.3.2.5.1l.6-.3c.2.2.5.4.8.3s.5.2.6.3.3.3.4.3c-.1.1-.1.2 0 .5.2.3 0 1.5-.9 2s-.8.1-1 .2c-.3.1-.3.3-.4.5-.2.2-.3.1-.3-.1-.1-.2-.4-.9-.6-1.1-.1-.3-.1-.4.1-.4s.3 0 .4.2c.2.1.4.3.9.1.4-.2.4-.5.3-.7-.1-.2-.4-.3-.6-.2s-.3.3-.4.3c-.2.1-.4-.2-.7-.2s-.8.2-1.1-.9c-.3-.9.4-2.1.9-2.3.4-.3.9-.4.9-.4.2-.1.6-.1.8 0 .1.1.3.1.3.3 0 0 .2.4.3.7m13.3-32c.2-.1.3-.3.4-.3.1.1.8.3 1.1.2s1.7.1 1.9 1c.2.9-.1.9 0 1.2s.2.4.3.6c.1.2-.1.3-.3.3s-1 .3-1.2.3c-.3.1-.4 0-.4-.2s.1-.3.3-.4.6-.4.5-.9-.3-.6-.5-.6c-.5.1-.7.3-.9.6-.3-.1-.4-.3-.8-.3-.3 0-.6.4-.7.9-.1.4.6.4.8.9.2.4-1.5.2-1.9-.7s-.1-1.8.3-2.1c.3-.4.8-.5 1.1-.5m3.4 5.1c-.3.2-1.1.2-1.4.2-.3-.1-.4-.2-.5-.3-.2.1-.3.3-.7.3s-1.2 0-1.3-.1c-.2-.1-.4-.1-.4.3 0 .3.1 1.2 0 1.5s.2.5.5.3 1-.2 1.3-.1c.3 0 .6.2.6.3.4-.2.5-.3.9-.3.3-.1.9 0 1 .1.2.1.6.4.7-.1.1-.4 0-1 0-1.6-.1-.8-.4-.7-.7-.5m.4 3.7c0-.5-.3-.4-.6-.3-.3.2-1.1.4-1.4.4s-.4-.1-.5-.2c-.2.2-.3.3-.7.4s-1.2.2-1.3.2c-.2 0-.4 0-.5.3v.4c0 .3-.1 1.3-.2 1.5-.1.3.1.6.4.6s.9.3 1.1.4c.3.2.5.4.5.6.3 0 .5-.1.8 0s.8.3.9.5c.2.2.5.7.7.3.2-.3.3-.7.3-1.3s-.2-.7-.5-.6c-.3 0-1-.3-1.3-.4-.3-.2-.5-.1-.5-.3-.1 0-.3-.1-.5-.2.3 0 .4-.2.7-.3.3-.1.5-.1.9-.2.3-.1.8-.1.9 0s.6.3.7-.2c.1-.4.1-1 .1-1.6m-1.7 6.2c-.3.1-1.1-.1-1.4-.3-.3-.1-.3-.3-.4-.3-.3.1-.4.2-.8.1-.3-.1-1.1-.3-1.2-.4-.1-.1-.4-.2-.5.1s-.3 1.1-.3 1.4c-.1.3.1.5.4.4.4-.1 1 .1 1.3.2.3.1.5.3.5.4.4 0 .6-.1.9-.1s.9.2.9.3c.1.2.5.6.7.2.2-.4.3-1 .3-1.5.2-.6-.1-.6-.4-.5m-.8 3.4c-.1 0-.5-.2-.7-.3-.1-.1-.6-.3-.7-.3-.3-.2-.4.3-.3.5s.3.5.4.7c0 .2-.1.3-.1.3-.3-.1-.4-.2-.5-.3-.3-.2-.3-.3-.3-.4-.3 0-.4.1-.8-.1-.3-.2-1-.5-1.2-.6-.1-.1-.4-.3-.5 0-.2.3-.4 1.1-.6 1.3-.2.3 0 .5.3.5.4 0 .9.3 1.2.4s.4.4.4.5c.4 0 .6 0 .9.1.1 0 .3.2.3.3 0 .2-.3.2-.3.2h-.7c-.3 0-.5.3-.2.5s1.3.5 1.3.5c.1.2.5.5.8.2.3-.4 1.4-2.9 1.5-3.4.4-.5.2-.6-.2-.6m-5.8 10c-.1 0-.4-.3-.5-.6 0-.1-.4-.4-.5-.5-.3-.3-.5.2-.5.3 0 .2.2.6.1.8 0 .2-.2.3-.3.3-.2-.2-.3-.3-.3-.4-.2-.3-.2-.5-.2-.5-.3-.1-.4-.1-.7-.3-.3-.3-.8-.9-.8-1-.1-.2-.3-.4-.5-.2s-.9.8-1 .9c-.2 0-.2.3.3.5.3.2.8.7.9.9.2.2.3.5.2.7.3.2.5.3.8.4.1.1.2.3.1.3-.1.1-.3.1-.3.1.1.1-.8-.3-.6-.3-.3-.1-.6.1-.4.3.2.3.9.9.9 1 0 .2.3.7.7.4.4-.3 2.5-2.1 2.8-2.5.3-.3.2-.4-.2-.6m-4.4 3.7c-.3-.2-.8-.9-.9-1-.1-.3-.1-.4-.1-.6-.2-.1-.4-.2-.6-.4-.3-.3-.7-.9-.7-1.1s-.2-.4-.4-.3c-.3.2-.9.7-1.2.9-.3.1-.3.4.1.6s.7.8.9.9c.1.3.2.6.1.7.3.3.5.3.8.5.3.3.5.7.5.9s0 .8.4.5c.4-.2.9-.6 1.3-.9.3-.3.1-.5-.2-.7m7.5-8.2c-.2 0-.4-.1-.7-.4-.3-.3-.4-1-.4-1.4-.3 0-.4 0-.6-.1-.2 0-.5-.3-.7-.4l-1.1-.5-.2.2c.1.3-.3.9-.4 1.1-.1.1.2.3.3.4.2.1.3.3.6.4.3.2.3.4.1.7-.2.3-.3.1-.4 0-.1-.2-.3-.4-.6-.7s-.6-.1-.7.1c-.1.1-.6.9-.7 1s0 .4.3.5.6.3.9.5.3.5.3.9c.4-.1.8-.1.9.1.2.2.8.6 1 1 .3.5.3.3.6 0s1.6-2.2 1.9-2.8c.2-.5-.2-.6-.4-.6Zm-1.4 1.4c0 .1-.1.2-.2.1l-.6-.4c0-.1-.1-.2-.2-.3.1-.1.2-.3.3-.4.1-.1.3-.1.3 0 .6.4.5.7.4 1Z" class="cls-5"/>
      <g id="seal-inner--praesidium">
        <path d="M38.4 16.6c-.3.1-.5.1-.5.3 0 .3.3.3.3.5.1.1.4.7.3 1s-.2.5-.2.7c.3.2.4.5.5.8s.3.9.3 1.2.3.5.5.3c.3-.2 1.9-.8 2.6-.7.1-.2.6-.7.6-.7-.1-.3-.2-.6-.2-.9s0-.3-.2-.3c-.1-.1-.3 0-.4.1-.1.1-.3.4-.5.5s-.7.3-.9.3l-.2-.5.9-.3c.1 0 .2-.1.3-.1s.2-.2.1-.4v-.5c0-.1-.2-.3-.3-.3s-.5.1-.7.2l-.4.2-.1-.7.7-.2c.1-.1.3 0 .3.1.1.1.3.2.3.3.1.1.4.1.4-.1.1-.3.1-.5 0-.6-.1-.2-.3-.8-.3-.8-.1-.1-.3-.3-.7-.2 0 .2-2.3.7-2.5.8m4.7 2.5c0-.1.2-.2.2-.2h.2l.2.1c.1.2.3.4.3.4.1.1.3.1.3.1h.7c.1 0 .3-.2.3-.3 0-.2-.1-.3-.3-.3h-.7c-.1-.2-.3-.6-.6-.7s-.3-.3-.3-.6c0-.2-.2-.3-.3-.4.1-.1.2-.2.2-.4 0-.3.7-1.4 1.6-1.4s.7.3 1 .3.4-.2.6-.3c.2 0 .3.1.3.3V17c0 .3-.1.4-.3.3s-.4-.2-.5-.3c-.1-.2-.3-.5-.7-.5s-.6.3-.6.5.3.4.4.4.3-.2.5-.2.3.3.5.4.8.1.8 1.2-.5 1.2-.9 1.6h-2.3c-.2 0-.3-.2-.3-.3-.1-.2-.2-.2-.2-.3l-.1-.7Zm13.3-1.4c0 .3-.3 1.1-.3 1.4-.2.3-.3.3-.4.4.1.3.1.4 0 .8-.1.3-.4 1.1-.5 1.2s-.3.4.1.5c.3.1 1.1.3 1.4.5.3.2.5 0 .5-.4s.2-1 .3-1.2c.1-.3.3-.4.5-.5 0-.4-.1-.6 0-.9s.3-.8.4-.9c.2-.1.6-.4.2-.7-.4-.3-.9-.4-1.5-.5-.7-.3-.8-.1-.7.3m10.3 8.4c-.3.2-.3.3-.5.6-.3.3-.9.8-.9.9-.1.1-.4.3-.2.5.3.3 1 .7 1.2.9.2.3.4.3.6-.1.2-.3.6-.8.8-.9.2-.2.5-.3.6-.2.2-.3.2-.6.3-.8.2-.3.6-.6.8-.6s.8-.1.4-.5c-.3-.4-1.3-1.5-1.7-1.8-.3-.3-.5-.2-.8 0l-2 .9.8-2c.2-.4.3-.5-.1-.9s-.8-.7-1.3-1c-.4-.3-.6-.1-.7.3-.1.3-.6.9-.8 1.1s-.4.3-.5.3c0 .3 0 .4-.3.7-.3.3-.8.9-.9.9-.1.1-.3.3-.1.5.3.2.7.6.9.8s.5.2.6-.3c.1-.4.6-1 .8-1.2l-.3 1.8q0 .3.1.5c.1.2.4.3.5.4s.3.2.7 0c.5 0 2-.8 2-.8" class="cls-5"/>
        <path d="M59 23.9c.3.2.5.3.7.4.3.1 1 0 1.2-.2s.9-.9.9-1c.2-.2.5-.3.6-.3.1-.4.1-.6.2-.9.2-.3.4-.8.6-.8.2-.1.7-.3.3-.6-.3-.3-.9-.6-1.4-.9s-.6 0-.6.3c-.1.3-1 2.1-1.2 2.3-.2.3-.6.8-.9.6-.2-.2-.2-.7-.1-.9.2-.2.4-.9.6-1.2s.4-.9.6-.9.7-.4.3-.7c-.3-.3-.9-.5-1.5-.7-.5-.2-.6 0-.6.3s-.3 1.1-.5 1.3c-.2.3-.3.3-.4.3 0 .3.1.4-.1.8s-.4.8-.3 1.1c0 .3.1.6.3.9.6.3 1.1.6 1.3.8m-11.5-7.7c.1.3.1 1.1 0 1.4s-.2.4-.3.5c.1.2.2.3.2.7s-.2 1.2-.2 1.3c-.1.2-.2.4.2.5.3 0 1.2.1 1.5.2s.5-.2.3-.5c-.2-.4-.1-1 0-1.3s.3-.5.3-.6c-.1-.4-.3-.5-.3-.9s.1-.9.2-1c.1-.2.4-.6 0-.7-.4-.2-1-.2-1.5-.2-.6.1-.5.3-.4.6M28 26.5c-.1-.1-.1-.2 0-.3l.8-.9c.3-.3.3-1.1 0-1.5-.1-.1-.2-.3-.2-.4-.2-.2-.3-.1-.4-.2-.7-.5-1.4-.5-1.9 0-.6.6-1.7 1.8-1.7 1.8-.1.1-.3.3-.2.5s.5.1.7.3l.7.7c.1.1.1.4.2.7.3.1.5 0 .7.2l1 1c.1.1.2.1.3 0l.9-.9c.1-.1.1-.2 0-.3l-.9-.7Zm-.5-1.3-.3.3-.9-.9.3-.3c.3-.2.5-.1.9.2.1.2.2.6 0 .7Zm10.9-3.7c-.2-.3-.3-.7-.4-.9-.1-.3.1-.6.2-.9-.3-.2-.6-.3-.7-.6-.1-.3-.3-.9-.3-1.5s-.2-.3-.5-.3c-.5.1-2.5.9-3.1 1.3-.6.3-.3.7-.1.8.2.2.3.3.3.8.1.4-.2 1.1-.3 1.4.3.1.3.2.5.3.2.2.3.5.3.8s.1.3-.2.5-.9-.3-1.1-.6c.1-.5-.1-1 0-1.5 0-.1-.1-.3-.2-.4-.2-.2-.3-.2-.4-.3-.7-.6-1.3-.8-1.9-.3l-2.3 1.6c-.1 0-.1.4-.1.8.2.2.5.2.7.3.1.3.2.3.3.4s.2.6.2.9c.3.1.5.1.6.3.1.1.3.3.4.6.2.3 0 .6.1.8.1.2.5 0 .6-.1l1.1-.7c.1-.1.2-.2.1-.3l-.5-.7c-.2-.3 0-.5.3-.3s1.5.9 2.2.4c.3-.2.5-.3.5-.6h.3c.2-.3.9-.6 1-.7.2 0 .2-.4.1-.5-.1-.1-.1-.3-.3-.6-.2-.3 0-.5.3-.6s.3.1.3.3.1.4.2.9c.1.4.4.4.6.3.1-.1.9-.4 1.1-.5.2-.1.3-.5.1-.6Zm-7 .9-.4.3-.7-.9c.2-.1.3-.2.3-.3.3-.2.5-.1.8.3.1.2.1.5 0 .6Zm4.5-2.6c-.1.1-.3.3-.4.3-.1.1-.3-.1-.3-.2-.2-.7.1-.9.3-1q.1-.1.2 0s.2.3.3.7c0 0 0 .1-.1.2ZM55 18.4c0-.3-.2-.8-.2-1.1s-.8-.9-1.2-.9c-.4-.2-2-.4-2.6-.4-.5 0-.5.2-.4.5s0 .9-.1 1.1c-.1.3-.3.6-.4.7.1.3.2.6.1.9s-.1.9-.2 1.1c-.1.1-.2.4.2.5.3.1 2.1.3 2.4.4.3.1 1 0 1.3-.3s.5-.9.7-1c.2-.2.4-.5.6-.6-.1-.4-.2-.6-.2-.9Zm-1.8 0v.4c-.1 0-.2.2-.3.3 0 .1 0 .2-.1.3-.1.2-.3.4-.4.4H52v-.3c0-.1.1-.2.1-.4.1-.2 0-.5 0-.6s.2-.3.2-.4c0-.2.1-.5.1-.7q0-.3.2-.3c.2 0 .4.2.5.3.1.2.2.3.2.5s-.1.4-.1.5Z" class="cls-5"/>
      </g>
    </g>
    <g id="shield">
      <path id="shield--bg" d="M72.2 26.5c-3.3 2.9-7.4 4.2-12.4 3.8-4.8-.3-9.7-2.2-12.9-3.5h-.4c-3.3 1.4-8.1 3.2-13 3.5-5 .3-9.1-.9-12.4-3.8l-.8.3c.9 15.3 3.3 26.3 7.5 34.6 3.8 7.5 8.6 12.1 14.9 17.9.6.5 1.2 1 1.7 1.5.6.5 1.2 1 1.9 1.5h.6c.6-.6 1.3-1.1 1.9-1.5s1.2-.9 1.7-1.5c6.3-5.8 11.1-10.5 14.9-17.9 4.2-8.3 6.6-19.3 7.5-34.6l-.7-.3Z" class="cls-1"/>
      <path id="shield--bottom" d="M64.6 61c-3.7 7.3-8.4 12-14.7 17.6-.5.5-1.1.9-1.7 1.5-.5.4-1 .9-1.6 1.4-.5-.5-1.1-.9-1.6-1.4-.6-.4-1.1-.9-1.7-1.5-6.3-5.7-11-10.3-14.7-17.6-2.2-4.6-4-10.2-5.2-16.9l46.6.2C68.8 51 67 56.5 64.6 61" class="cls-2"/>
      <path id="shield--top" d="M33.6 31.2c4.9-.3 9.8-2.2 13.1-3.5 3.3 1.4 8.2 3.2 13.1 3.5 4.9.3 9-.8 12.2-3.4-.4 5.8-1 11-1.9 15.7l-47-.2c-.9-4.6-1.4-9.7-1.8-15.4 3.3 2.5 7.4 3.7 12.3 3.3" class="cls-5"/>
      <g id="book">
        <path id="book-outline" d="m55.7 38.6-.5-3.1c.6-.3.8-.7.7-1.2s-.6-.8-1-.9l-.1-.5c-.4 0-1.4-.2-1.8-1.2-1.6 0-2.4-.4-2.7-.7-.3-.3-1.9-.7-2.4-.6s-1.4.4-1.8 1.1c-.5-.6-1.2-1-2.1-1s-2 .7-2.6 1c-.6.2-1.5.3-1.9.3l-.8.8h-.6l-.3.8c-.4.3-1 .7-.5 1.7l-.4 3.3c-.6.6-1.1 1.3-.4 2.1l-.2 1.3 8.7-.6c.4.3.9.4 1.2.4s.9 0 1.2-.3l8.2.5v-1.2c.4 0 1-.3 1-.8.3-.6 0-1-.9-1.2Zm-.2-4.3c0 .3-.1.5-.4.5l-.2-.9c.3 0 .6.1.6.4Zm-1.8-1.2.7 6.9-.2.1-.5-.3-.7-7.3c.3.3.5.5.7.6Zm-7.1-1.4c.4-.6 1.3-.8 1.6-.9s1.7.3 1.9.5c.5.5 1.4.8 2.7.8l.8 7.4s-.1.2-.2.2c-.6.1-1.7 0-2.4-.3-.9-.4-2-.6-2.7-.4-.5.1-1.1.4-1.5.7-.1.1-.3 0-.3 0l-.1-7.7.2-.3Zm-6.7.5c1.3 0 2.2-.3 2.7-.8.2-.2 1.6-.5 1.9-.5.3.1 1.2.3 1.6.9l.2.2-.1 7.8s-.1.2-.3.1c-.4-.3-1-.6-1.5-.7-.7-.2-1.8 0-2.7.4-.7.3-1.9.4-2.4.3-.1 0-.2-.2-.2-.2l.8-7.5Zm-1 .9c.2-.1.5-.3.7-.5l-.7 7.3-.9.7.1-.6.8-6.9Zm1.3 8.3-1.2.1c-.1 0-1.3.1-1.6.1s-.4 0-.4-.3l.1-.6.1-.6.1-1.4.8-5.4c.1 0 .3-.1.4-.1l-.8 7.9h1.4l.8-.1c.5-.1 1.3-.2 2.1-.4.6-.1 1.1-.2 1.4-.3.5-.1 1 .1 1.4.4l-4.6.7Zm4.7-.8c-.3-.2-.8-.6-1.6-.5s-3.2.7-3.9.7-.9-.3-.9-.3l.3-.4c.4.2 2 .1 2.8-.3.8-.4 1.9-.6 2.6-.4.6.1 1.6.6 1.8.9.2.4-.1.2-.2.2-.4.1-.7.3-.9.1Zm1.5.6c-.3 0-.6-.2-.6-.3s.2-.2.6-.2c.3 0 .5.1.5.2 0 .3-.2.3-.5.3Zm1.4-.4c.4-.3.9-.5 1.4-.4.3 0 .8.1 1.4.3.8.2 1.5.3 2.1.4v.1l-4.9-.4Zm1.5-.7c-.8-.1-1.3.2-1.6.5s-.6 0-.9 0c-.2 0-.5 0-.2-.3.2-.3 1.1-.8 1.7-.9.6-.2 1.8 0 2.6.4s2.3.4 2.8.3l.5.5s-.2.2-.9.3c-.8-.1-3.2-.7-4-.8Zm6.1.4v.6c-.2.2-.5.2-.7.1-.2 0-1-.1-1.2-.1v-.2l1.4-.1-.9-7.6c.1.1.3.1.4.1l.8 5.4.2 1.4v.4Zm.5-.7c-.2 0-.3-.1-.3-.3s.1-.3.3-.3.4.2.4.4c0 .1-.2.2-.4.2Z" class="cls-4"/>
        <g id="lines-left">
          <path d="M40.5 33.3c.3 0 .6-.1.8-.1.1 0 .1-.1.1-.1 0-.1-.1-.1-.1-.1-.3 0-.6 0-.8.1s-.1 0-.1.1c0 0 0 .1.1.1" class="cls-4"/>
          <path d="M41.6 33c.4-.1.8-.3 1-.6.1 0 .3-.1.6-.2s.1 0 0-.1c0-.1-.1-.1-.1-.1-.3.1-.6.2-.7.3-.2.2-.6.4-1 .6-.1 0-.1.1-.1.1q.2.1.3 0m3.9-.8c-.4-.2-.8-.3-.9-.3-.2-.1-.7.1-.9.1l-.1.1.1.1c.3-.2.6-.2.8-.2s.5.1.9.3h.1v-.1m-1.9.3c-.4.1-1 .3-1.2.4v.2h.1c.2-.1.6-.3 1.1-.4.1 0 .1-.1.1-.1.1-.1 0-.1-.1-.1m-3.2 1.3c.7-.1 1.3-.2 1.8-.5 0 0 .1-.1 0-.1 0 0-.1-.1-.1 0-.4.2-1 .4-1.7.5 0 0-.1 0-.1.1 0-.1.1 0 .1 0m5-1.1c-.3-.2-.7-.3-.9-.3h-.1s-.1 0-.1.1 0 .1.1.1h.1c.2 0 .5.1.8.3h.1c.1-.1.1-.2 0-.2m-5 1.6c.3 0 .7-.1 1-.2 0 0 .1 0 .1-.1s-.1-.1-.1-.1c-.3.1-.6.1-.9.2q-.1 0-.1.1t0 .1m2-.9-.3.3c-.1 0-.2 0-.2.1v.1l.1.1c.1 0 .2-.1.3-.1s.3-.2.4-.3c-.2-.1-.3-.2-.3-.2m1.7-.3L44 33c-.5.1-1.2.3-1.4.4h.1v.1c.1-.1.8-.3 1.4-.4q-.1 0 0 0c-.1 0 0 0 0 0m1.3.2c-.2-.1-.3-.1-.5-.2q-.1 0-.1.1s0 .1.1.1c.2.1.3.1.5.2h.1c0-.1 0-.2-.1-.2m-5.1 1.5c.8 0 1.3-.2 1.8-.5.1-.1.3-.2.4-.2l-.1-.1c-.1.1-.3.2-.4.3-.4.2-1 .4-1.7.4s-.1 0-.1.1c0 0 .1.1.1 0m5.1-.9c-.4-.2-.7-.3-.8-.3h-.1c-.2 0-.5 0-1 .1-.1 0-.1.1-.1.1s0 .1.1.1c.4-.1.8-.1 1-.1h.1c.1 0 .5.1.8.3h.1c0-.2-.1-.2-.1-.2m-5.1 1.4c.4 0 .7-.1 1-.1l.1-.1-.1-.1c-.3.1-.6.1-1 .1q-.1.1 0 .2c-.1 0-.1.1 0 0" class="cls-4"/>
          <path d="M45.3 34.4c-.3-.2-.7-.3-.8-.4h-.2c-.4-.1-1.6.2-2 .4 0 0-.3.2-.5.3 0 0 .1 0 0 0 0 0 0 .1-.1.1h.1c.2-.1.3-.2.4-.2.4-.2 1.5-.4 1.9-.4l.1.1c.1 0 .4.1.8.3.3 0 .4 0 .3-.2.1.1.1 0 0 0m-5.1 1.5c.7-.1 1.3-.2 1.8-.5.2-.1.3-.2.4-.2.1 0 .2-.1.2-.1.1 0 .1-.1.1-.1s0-.1-.1-.1l.1-.1-.3.2c-.1 0-.2.1-.4.2-.4.2-1 .4-1.7.4-.1 0-.1.1-.1.1-.1.1 0 .2 0 .2" class="cls-4"/>
          <path d="M44.4 34.8h.1s.1 0 .1-.1c0 0 0-.1-.1-.1h-.1c-.3 0-.9.1-1.4.2l-.1.1c0 .1.1.1.1.1.6-.1 1.1-.2 1.4-.2m-4.2 1.6c.7 0 1.4-.2 1.8-.4.1-.1.2-.2.4-.2 0 0 .1-.1 0-.1h-.1c-.1.1-.3.1-.4.2-.4.2-1 .4-1.7.4-.1 0-.1.1-.1.1h.1m5.1-.8s0-.1 0 0c-.4-.2-.7-.3-.8-.3h-.1c-.3 0-.9.1-1.3.1l-.1.1.1.1c.5-.1.9-.2 1.2-.1h.1c.1 0 .4.1.8.3q.1 0 .1-.1c.1-.1 0-.1 0-.1m-2.4.4c-.2 0-.4.1-.5.1s-.1 0-.1.1l-.4.2c-.2.1-.5.2-.8.2l-.1.1s.1 0 .1.1c.3-.1.7-.2.9-.3l.4-.2c.2 0 .4-.1.6-.2l-.1-.1c.1 0 0-.1 0 0 0 0 0-.1 0 0m2.4.1c-.2-.1-.5-.3-.8-.3h-.8l-.1.1.1.1c.3 0 .5-.1.6 0q.1 0 .1.1c.2 0 .5.2.8.3s.1 0 .1-.1c.1-.1 0-.2 0-.2m-5.2 1.3c.6 0 1.1-.1 1.5-.3.1 0 .1-.1.1-.1s0-.1-.1-.1c-.4.1-.9.2-1.4.3q-.1 0-.1.1t0 .1m5.1-.7c-.3-.1-.5-.2-.8-.3h-.1s0-.1-.1 0c-.5-.1-1.5.1-2.1.3v.2h.1c.6-.3 1.5-.4 2-.3h.1v.1c.2 0 .6.1.8.3h.1c.2-.2.1-.3 0-.3M40 38c.4 0 .7 0 1-.1.1 0 .1-.1.1-.1l-.1-.1c-.3.1-.6.1-1 .1q-.1 0-.1.1l.1.1m1.7-.4s.1 0 .1.1c.1-.1.3-.1.4-.2.2-.1.4-.1.7-.2l.1-.1c0-.1-.1-.1-.1-.1-.2.1-.5.1-.7.2-.1.1-.3.1-.5.2v.1" class="cls-4"/>
          <path d="M45.2 37.2c-.3-.1-.6-.3-.8-.3h-.7q-.1 0-.1.1t.1.1h.6c.2 0 .5.2.8.3h.1q.1-.1 0-.2m-3 .7c.5-.2 1.1-.3 1.5-.3q.1 0 .1-.1t-.1-.1c-.5 0-1.1.1-1.6.3-.1 0-.1.1-.1.1.1.1.2.1.2.1 0 .1 0 0 0 0 0 .1 0 0 0 0m3-.1c-.3-.1-.6-.2-.8-.3q-.1 0-.1.1t.1.1c.2.1.5.2.8.3q.1 0 .1-.1l-.1-.1m-5.2.7c.7 0 1.4-.2 1.8-.4V38h-.1c-.4.2-1 .3-1.7.3q-.1 0-.1.1s0 .1.1.1m5.2-.1c-.2-.1-.6-.2-.8-.3-.3-.1-.9-.1-1.4 0-.1 0-.1.1-.1.1s0 .1.1.1c.5-.1 1-.1 1.4 0 .2 0 .5.2.7.3h.1v-.2m-2.9-.2-.6.3c-.5.2-1.2.3-1.8.3l-.1.1s0 .1.1.1c.3 0 1.2-.1 1.8-.3.2-.1.4-.2.6-.2.1 0 .1-.1.1-.1 0-.1-.1-.2-.1-.2" class="cls-4"/>
        </g>
        <g id="lines-right">
          <path d="M52 33.3c-.3 0-.6-.1-.8-.1-.1 0-.1-.1-.1-.1 0-.1.1-.1.1-.1.2.1.5.1.8.1s.1 0 .1.1c0 0 0 .1-.1.1" class="cls-4"/>
          <path d="M50.9 33c-.4-.1-.8-.3-1-.6-.1 0-.3-.1-.6-.2s-.1 0 0-.1c0-.1.1-.1.1-.1.2.1.5.2.7.3.2.2.6.4 1 .6.1 0 .1.1.1.1q-.2.1-.3 0m-3.8-.8c.4-.2.8-.3.9-.3.2-.1.7.1.9.1.1-.1.1 0 .1 0l-.1.1c-.4-.1-.7-.1-.9-.1-.1 0-.5.1-.9.3H47s0-.1.1-.1m1.6.3q0 .1.1.1c.5.1.9.3 1.1.4h.1v-.2c-.2-.1-.7-.3-1.2-.4q0 .1-.1.1m-1.6.2c.3-.2.7-.3.9-.3h.1s.1 0 .1.1 0 .1-.1.1H48c-.2 0-.5.1-.8.3h-.1c-.1-.1-.1-.2 0-.2m5 1.6s.1 0 0 0c-.3 0-.7-.1-1-.2 0 0-.1 0-.1-.1s.1-.1.1-.1c.3.1.6.1.9.2q.1 0 .1.1t0 .1m-2-.9.3.3c.1 0 .2 0 .2.1v.1l-.1.1c-.1 0-.2-.1-.3-.1s-.3-.2-.4-.3c.2-.1.3-.2.3-.2m-1.7-.3.1-.1c.5.1 1.2.3 1.4.4h-.1v.1c-.1-.1-.7-.3-1.4-.4q.1 0 0 0 .1 0 0 0m3.7.7c-.7-.1-1.3-.2-1.8-.5 0 0-.1-.1 0-.1 0 0 .1-.1.1 0 .4.2 1 .4 1.7.5 0 0 .1 0 .1.1 0-.1 0 0-.1 0m-5-.5c.2-.1.3-.1.5-.2q.1 0 .1.1s0 .1-.1.1c-.2.1-.3.1-.5.2H47c0-.1.1-.2.1-.2m5.1 1.5c-.8 0-1.3-.2-1.8-.5-.1-.1-.3-.2-.4-.2l.1-.1c.1.1.3.2.4.3.4.2 1 .4 1.7.4s.1 0 .1.1c0 0 0 .1-.1 0m-5.1-.9c.4-.2.7-.3.8-.3h.1c.2 0 .6 0 1 .1.1 0 .1.1.1.1s0 .1-.1.1c-.4-.1-.8-.1-1-.1h-.1c-.1 0-.5.1-.8.3H47l.1-.2m5.1 1.4c-.4 0-.7-.1-1-.1l-.1-.1.1-.1c.3.1.6.1 1 .1s.1 0 .1.1 0 .2-.1.1" class="cls-4"/>
          <path d="M47.2 34.4c.3-.2.7-.3.8-.4h.2c.4-.1 1.6.2 2 .4 0 0 .3.2.5.3 0 0-.1 0 0 0 0 0 0 .1.1.1h-.1c-.2-.1-.3-.2-.4-.2-.4-.2-1.5-.4-1.9-.4l-.1.1c-.1 0-.4.1-.7.3-.4 0-.5 0-.4-.2-.1.1-.1 0 0 0m5.1 1.5c-.7-.1-1.3-.2-1.8-.5-.2-.1-.3-.2-.4-.2-.1 0-.2-.1-.2-.1-.1 0-.1-.1-.1-.1s0-.1.1-.1l-.1-.1.3.2c.1 0 .2.1.4.2.4.2 1 .4 1.7.4.1 0 .1.1.1.1.1.1.1.2 0 .2" class="cls-4"/>
          <path d="M48.2 34.8h-.1s-.1 0-.1-.1c0 0 0-.1.1-.1h.1c.3 0 .9.1 1.4.2l.1.1c0 .1-.1.1-.1.1-.7-.1-1.2-.2-1.4-.2m4.1 1.6c-.7 0-1.4-.2-1.8-.4-.1-.1-.3-.2-.4-.2 0 0-.1-.1 0-.1h.1c.1.1.3.1.4.2.4.2 1 .4 1.7.4.1 0 .1.1.1.1h-.1m-5.1-.8s0-.1 0 0c.4-.2.7-.3.8-.3h.1c.3 0 .9.1 1.3.1.1 0 .1.1.1.1l-.1.1c-.5-.1-.9-.2-1.2-.1h-.1c-.1 0-.4.1-.8.3q-.1 0-.1-.1c-.1-.1 0-.1 0-.1m2.4.4c.2 0 .4.1.5.1s.1 0 .1.1l.4.2c.2.1.5.2.8.2l.1.1s-.1 0-.1.1c-.3-.1-.7-.2-.9-.3l-.4-.2c-.2 0-.4-.1-.6-.2.1 0 0 0 .1-.1-.1 0 0-.1 0 0 0 0 0-.1 0 0m-2.4.1c.2-.1.5-.3.8-.3h.8l.1.1-.1.1c-.3 0-.5-.1-.6 0q-.1 0-.1.1c-.2 0-.5.2-.8.3s-.1 0-.1-.1v-.2m5.3 1.3c-.6 0-1.1-.1-1.5-.3-.1 0-.1-.1-.1-.1s0-.1.1-.1c.4.1.9.2 1.4.3q.1 0 .1.1v.1m-5.2-.7c.3-.1.5-.2.8-.3h.1s0-.1.1 0c.5-.1 1.5.1 2.1.3v.2h-.1c-.6-.3-1.5-.4-2-.3h-.1v.1c-.2 0-.6.1-.8.3h-.1c-.1-.2-.1-.3 0-.3m5.2 1.3c-.4 0-.7 0-1-.1-.1 0-.1-.1-.1-.1l.1-.1c.3.1.6.1 1 .1q.1 0 .1.1l-.1.1m-1.7-.4s-.1 0-.1.1c-.1-.1-.3-.1-.4-.2-.2-.1-.4-.1-.7-.2l-.1-.1c0-.1.1-.1.1-.1.2.1.5.1.7.2.1.1.3.1.5.2v.1" class="cls-4"/>
          <path d="M47.3 37.2c.3-.1.6-.3.8-.3h.7q.1 0 .1.1t-.1.1h-.6c-.2 0-.5.2-.8.3h-.1q-.1-.1 0-.2m3 .7c-.5-.2-1.1-.3-1.5-.3q-.1 0-.1-.1t.1-.1c.5 0 1.1.1 1.6.3.1 0 .1.1.1.1q-.1.1-.2.1c0 .1 0 0 0 0 0 .1 0 0 0 0m-3-.1c.3-.1.6-.2.8-.3q.1 0 .1.1t-.1.1c-.2.1-.5.2-.8.3q-.1 0-.1-.1l.1-.1m5.4.6c0-.1-.1-.1 0 0l-.1-.1c-.7 0-1.3-.2-1.7-.3h-.1v.1c.4.2 1.1.3 1.8.4 0 0 0-.1.1-.1m-5.3 0c.2-.1.6-.2.8-.3.4-.1.9-.1 1.4 0 .1 0 .1.1.1.1s0 .1-.1.1c-.5-.1-1-.1-1.4 0-.2 0-.5.2-.7.3h-.1q-.1-.2 0-.2m2.8-.2.6.3c.5.2 1.2.3 1.8.3l.1.1s0 .1-.1.1c-.3 0-1.2-.1-1.9-.3-.2-.1-.3-.2-.6-.2-.1 0-.1-.1-.1-.1l.2-.2" class="cls-4"/>
        </g>
      </g>
      <g id="wreath">
        <path id="wreath--bg" d="M62.8 58.5c-.3 0-.5.3-.9.3-.4.1-.9.3-1.3.3.1-.3.3-.3.4-.4.5-.2 1-.3 1.4-.8.8-1.1.3-2.2-.1-3.2-.1-.5-.2-.9-.7-1-.2 0-.3-.2-.2-.4.1-.5.4-1.1.7-1.1 0-.1.1-.2-.1-.2v-.1c-.8-.1-1.4-.5-1.3-1.4v-.1c.1-.3.1-.5.2-.8 0-.1 0-.2-.1-.2l-.3-.3-.1-.1c-.2-.3-.3-.9-.7-.9-.3 0-.3.3-.4.3v-.1c-.2-.3-.3-.6-.4-.9-.2-.3-.3-.5-.6-.8h-.2v.1c-.1.3-.2.5-.3.7h-.2c-.2-.4-.6-1.4-1.3-1.7-.2-.1-.5.1-.5.3 0 .3.1.6 0 .6 0 .1 0 .3-.2.3l-.1-.1c-.4-.7-1.1-1-2-.9-.2 0-.3 0-.4.2-.2.3.4 1.3.6 1.6l.1.1c.2.2.6.3.6.6h-.1c-.1.1-1.3.9-1 .9q.1.3.3.6c.2.2.8.5.9.5.3-.1.8-.3 1.5-.2l.4.2-.2.2c-.4 0-.7.2-1 .3-.1-.2-.2 0-.2.1.1.2 0 .4.3.8.3.3.9.3 1.1.8.2.4.2.9.3 1.3.1.3.2.6.2.9v.2c0 .1-.1.2-.1.4v.1c0 .9.7 1.5 1.5 1.6.4.1.5.4.5.4-.4-.2-1.2-.6-1.6-.4-.6.3-.3 1.9-.4 2.5 0 .4-.2.6-.3 1.1v.1c.1.4.1.8.2 1.2-.3 0-.8-.1-.8.3.1.3.4.6.5 1 0 .1.1.3-.1.3h-.2c-1-1.7-1.1 1.5-1.1 2.3-.1 0-.3-.4-.3-.6 0-.1-.1-.1-.1-.2-.2-.1-.4-.3-.6-.2-.5.1-.8.8-1 1.1-.2.3-.5.4-.7.7-.3.4-.6 1.1-.4 1.6 0 .1.2.4.1.4-.3.3-.4.3-.6.3h-.2c0-.1-.1-.1-.1-.2-.4-.6-1.1-.4-1.8-.3h-.1l-.2.2c-.2.1-.4.2-.7.2s-.5-.2-.8-.2h-.1c-.3.1-.7.1-1 .2s-.6 0-.9.1c-.1 0-.2 0-.3-.1-.3-.3-1.9-.6-2.3-.4-.3.1-.5.3-.6.6 0 .1-.1.1-.1.2-.3 0-.5-.3-.7-.5-.2 0 .1-.3.1-.4.2-.5-.1-1.2-.4-1.6-.3-.2-.6-.4-.7-.7-.3-.3-.5-1-1-1.1-.2-.1-.4 0-.6.2-.1 0-.1.1-.1.2l-.3.6c0-.8-.1-4-1.1-2.3H37c-.2 0-.1-.2-.1-.3.1-.4.4-.7.5-1 0-.3-.5-.3-.8-.3l-.1-.1c.1-.4.1-.8.2-1.2v-.1c0-.5-.3-.7-.3-1.1-.1-.6.2-2.2-.4-2.5-.4-.2-1.2.3-1.6.4 0 0 .1-.3.5-.4.8-.2 1.5-.7 1.5-1.6v-.1c0-.1-.1-.2-.1-.4v-.2c.1-.3.2-.5.2-.9.1-.4.1-.9.3-1.3.2-.5.8-.4 1.1-.8.5-.5.5-.8 1.1-.9.2 0 .3-.2.3-.4v-.1c0-.5.4-.9.6-1.4.3 0-.9-.7-.9-.8h-.1c0-.2.4-.4.6-.6l.1-.1c.2-.3.7-1.3.6-1.6-.1-.2-.3-.2-.4-.2-.9-.1-1.5.3-2 .9l-.1.1c-.2 0-.2-.2-.2-.3-.1-.1 0-.4 0-.6 0-.3-.2-.5-.5-.3-.6.4-1.1 1.3-1.4 1.8h-.2c-.1-.2-.2-.4-.3-.7v-.1H35c-.3.3-.4.5-.6.8-.2.3-.2.6-.4.9v.1c-.2 0-.2-.3-.4-.3-.5 0-.6.5-.7.9 0 0 0 .1-.1.1l-.3.3q-.1.1-.1.2c0 .3.1.5.2.8v.1c.1.9-.5 1.3-1.3 1.4v.1c-.2 0-.1.1-.1.2.3 0 .6.6.7 1.1 0 .2-.1.3-.2.4-.5.1-.5.6-.7 1-.3 1-.9 2.1-.1 3.2.3.4.9.6 1.4.8.2.1.3.2.4.4-.4-.1-.9-.3-1.3-.3-.3-.1-.5-.3-.9-.4v.1c-.2 0-.1.3-.1.5.1.3.1.7.2 1v.1c0 1.2.1 1.5 1 2.1.2.1.2.3.1.5l-.2.2v.2h.3c.2 0 .3.1.5.1.3.1.3.4.1.6 0 0-.1 0-.1.1-.1.1-.1.2-.1.3.1.6.7 1.1 1.3 1.2.2 0 .3.2.2.3 0 .2-.1.3-.1.5s.1.4.3.4c.5 0 1.2 0 1.4.2.1.2-.8.5-.9.7-.2.5.6.9 1.4 1v.1c.2 0 .2.4.2.6 0 .3.3.8.7 1 .3.3.7.2.9.3.2.2.4.3.7.5.2.1.4.2.6.2.4.3.6.9 1.2 1 .5.1.9-.3 1.5-.3h.2c.2 0 .3.1.3.2q.1.1.1.2c.1.4.1.9.2 1.5v.1c.3.7.7 1.3.9 2 .2.6-.1 1.1-.1 1.6h.1v.1h.2c0-.3 1.1-1.2 1.3-1.7v-.1c0-1.1-1.5-2.3-1.4-3 .2-.6 1-1.3 1.7-1.3.4 0 .8.3 1.2.3.9 0 1.9-.3 2.7.3 1 .8-1 2.8-1.4 3.6v.1c-.1.3-.1.6-.2.9v.1c0 .7.3 1.1.8 1.7h.3v-.1c.1 0 .2-.6.3-.8.2-.4.6-.6.8-1s-.4-.8-.3-1.3v-.1c.2-.5.7-.9 1-1.3.2-.3.3-.5.5-.8s.2-.7.4-1c.1-.1.2-.2.4-.2.2.1.4.1.4.1h.1c.5.1.9.2 1.5.1h.1l.6-.3c.2-.1.2-.4 0-.5 0 0-.1 0-.1-.1-.3-.2 0-.7.3-.5.2.1.5.2 1 .3.1 0 .2 0 .2-.1.1-.1.2-.1.4-.1s.7-.2 1-.5.7-.7.7-1c0-.2 0-.6.2-.6v-.1c.8-.1 1.7-.6 1.4-1-.1-.2-1-.5-.9-.7s.9-.3 1.4-.2c.2 0 .4-.2.3-.4 0-.2-.1-.3-.1-.5s.1-.3.2-.3c.6-.2 1.2-.6 1.3-1.2 0-.1 0-.2-.1-.3 0 0-.1 0-.1-.1-.2-.2-.1-.5.1-.6.2 0 .3-.1.5-.1h.3v-.3l-.2-.2c-.1-.1-.1-.4.1-.5.9-.6 1-.9 1-2.1v-.1c.1-.3.1-.7.2-1-.5 0-.4-.4-.6-.4Z" class="cls-1"/>
        <g id="wreath--leaves">
          <path d="M36.6 48.3c.4-.4.4-1.2.4-2-.6.3-1.1 1.5-.8 2m-1.3-.8c-.1.5-.9 1.3 0 2.4h.2c.1-.6.5-1.6-.2-2.4m-1.3 1.6c0 .3.8 1.9.9 1.9s.3-.1.4-.1c-.1-.7-.6-1.3-1.3-1.8m3.5.9c.3.2.8.3 1.2.3-.1-.5-.6-.4-1.2-.3Zm-3.9.1c0 .3 0 .5-.1.8-.1.5-.3 1.5.5 1.5.2-.9.1-1.7-.4-2.3" class="cls-7"/>
          <path d="M38.3 70.5c.3.3.7.3 1.1.3.3 0 1.7-.9 1.7-.9.3.1.7.2 1 .3 0-.1.2-.2 0-.2-.6-.5-1.4-.7-2.1-1.1-.4-.3-.6-.7-.9-.9-.2-.2-.6-.1-.9-.3-.4-.3-.7-.7-1-1l-.7-.7c-.5-.6-.9-1.3-1.2-2-.1-.3-.2-.5-.3-.8-.3-.5-.7-.9-.8-1.6 0-.3-.1-.7-.1-1.1 0-.2.1-.3.1-.4h-.1V60c-.9-.1-.7-2.6-.6-3.3.1-.3.3-.5.3-.8-.6-.7 1.3-4.4 1.4-4.4.2-.3.5-.7.6-1 .2-.6.7-.9 1.3-1 .1 0 .2 0 .2-.2-.1 0-.4-.2-.3-.3.2-.3.5-.8.9-1 .7-.5 1.5-.5 1.5-1.7h-.1c-.3.2-.6.2-.9.4-.3.3-.4.6-.6.9-.6.9-1.4 1.5-2 2.5-.1.1-.2.3-.3.4-1 1.5-1.7 2.8-2.1 4.6-.1.3-.3.6-.3.9 0 .2.1.3.1.4v1.1c-.1.3-.1.6-.2.9.5.5.4 2.2.6 2.9.3.6.6 1.3.9 1.9.2.3.5.7.5 1.1-.1 0-.3.1-.3.1v.3c.2.1.3.2.5.2.2.1.3.3.4.4.4.7.9 1.4 1.5 2 .2.1.3.3.5.3.4.3.9.7 1.3 1 .4.3 1 .5 1.5.9.1.1.2.2.2.3h-.1c-.7.5-1.4.5-2.2.5v.2Zm-6.4-18.2c.2.3.5 1.7 1.4 1.5-.2-.7-.2-1.5-.9-1.5" class="cls-7"/>
          <path d="M35.9 52.3c-.5.5-1.5 2-1.4 2.8.8-.1 1.6-1.4 1.6-2.4m-.4 2.6c-1.3.5-2.4 2.2.3.5v-.1c-.1 0-.3 0-.3-.2m-4.5 1.1c-.3.6.6 1.4 1.1 1.4.3-1.7-.6-1.1-1.1-1.4m0 2.6c.1.9.9 1.4 1.7 1.4 0-1-1-1.2-1.7-1.4m4.3.4c-.1.1-1.1 1.3-.6 1.3v.1h.2c0-.4.8-.8.7-1.4h-.3Zm.5 1.2c0 .1-.9 1.2-.4 1.2v.1h.1c.1-.2.6-.6.3-1.3m-4.6.2c0 .2.1.3.1.4 3 .8 1.8-.4-.1-.4m4.9 1.3c-.3.5-.6.9-.3 1.5.1.1.1.3.3.3.1-.3 0-1.6.3-1.6q0-.1-.1-.1s-.1 0-.2-.1m-3.9.1c0 .3 1.3.8 1.6.9.2-.5-.7-1.1-1.6-.9m5.2 1.1c-.5.6.1 1.1.1 1.7h.1c0-.2 0-1.6-.2-1.7.1.1 0 .1 0 0m-4.5.2c-.4.3-.3.6.3.9v-.1h.1c-.1-.3-.1-.6-.4-.8m.8.2c0 .1.2.8.2.5h.1c0-.1.2-.3 0-.3-.1.1-.2 0-.3-.2m1.6 1.8c-.2-.3-1.3-1-1.3.2 0-.5.5.2 1.4.2l-.1-.4Zm4.9 1c-.1.3.2 1.5.5 1.5v-.1c0-.7-.1-1.1-.5-1.4M35 67.8c.4 0 .9.1 1.7-.4-.3-.3-1.3-.3-1.9.2l.2.2Zm3.4 1.4c-.8.6-1.1.2-1.9.2-.1.7 2.2.8 1.9-.2m2.6 2h-.6c-.2.2-.4.3-.4.5.3 0 .5.1.9 0 .1-.1.2-.3.3-.3v-.2H41Zm1 .2q-.1.1-.1.2h.3v-.1c.2-.1.1-.2 0-.3l-.2.2ZM31.7 54.2c.5 0 .4.2.9.7s-.2 1.2-.1 1.2-.3.1-.5-.5c-.3-.7-.3-1.4-.3-1.4Zm6-3.3c-.4 0-1.7-.1-1.9.8.7.1 1.5.3 1.7-.4m1.9-2.3c-.5-.2-1.6-.3-1.8.4.7.2 1.4.5 1.7-.1m-3.4 8.2c.2.4-.3.6-.5 1.2-.3.6-1 .3-1 .4s-.4-.4.1-.9 1.4-.7 1.4-.7Zm3.3 7.7c-.4.4-.8 1.6-.2 2 .4-.6 1-1.1.6-1.6m14.2.1c-.4.5.2 1 .6 1.6.6-.5.2-1.7-.2-2m3.2-7.7c-.2.4.3.6.5 1.2.3.6 1 .3 1 .4s.4-.4-.1-.9-1.4-.7-1.4-.7Zm-.2-9.2c.2-.5-.2-1.7-.8-2 0 .8 0 1.6.4 2m1.6-.8c-.7.8-.3 1.8-.2 2.4h.2c.9-1.2.1-1.9 0-2.4m1.3 1.6c-.7.4-1.2 1.1-1.4 1.8.1 0 .3.1.4.1.3 0 1-1.5 1-1.9m.4 1c-.5.6-.6 1.5-.4 2.2.9 0 .6-.9.5-1.5-.1-.2-.1-.5-.1-.7" class="cls-7"/>
          <path d="M56.3 69.9c-.9 0-1.5 0-2.2-.5H54c-.3-.1-.1-.3 0-.4.2-.2 0 0 .5-.4.4-.3.9-.7 1.3-1 .2-.1.3-.3.5-.3.6-.6 1-1.3 1.5-2 .1-.2.3-.3.4-.4.2 0 .3-.1.5-.2v-.3c-.1 0-.3-.1-.3-.1 0-.4.3-.8.5-1.1.3-.6.6-1.3.9-1.9.2-.8.1-2.4.6-2.9-.1-.3-.1-.6-.2-.9v-1.1c0-.1.1-.3.1-.4 0-.3-.3-.6-.3-.9-.4-1.8-1.1-3.2-2.1-4.6-.1-.1-.2-.3-.3-.4-.6-.9-1.4-1.6-2-2.5-.2-.3-.3-.7-.6-.9-.3-.3-.6-.3-.9-.4H54c0 1.2.9 1.2 1.5 1.7.3.3.7.7.9 1 .1.2-.3.3-.3.3 0 .2.1.2.2.2.6.1 1.1.4 1.3 1 .1.3.4.7.6 1 .1 0 2 3.7 1.4 4.4 0 .3.3.5.3.8.1.7.3 3.2-.6 3.3s-.3 0-.3 0c0 .1.1.3.1.4 0 .4-.1.8-.1 1.1-.1.7-.5 1.1-.8 1.6-.1.3-.2.5-.3.8-.3.7-.7 1.4-1.2 2l-.7.7c-.3.3-.6.7-1 1-.3.2-.7.1-.9.3-.3.3-.5.7-.9.9-.7.4-1.5.6-2.1 1.1-.2 0 0 .1 0 .2.3-.1 1.9-.6 2.2-.7 0 .1 1.5.9 1.7.9.4.1.9 0 1.1-.3l.2-.1Zm4.6-17.5c-.7 0-.7.8-.9 1.5.9.2 1.2-1.1 1.4-1.5" class="cls-7"/>
          <path d="M57.2 52.8c.1 1 .8 2.3 1.6 2.4.1-.9-.9-2.3-1.4-2.8m.3 3.3c0 .2-.2.2-.3.2v.1c2.7 1.7 1.6 0 .3-.5v.2Zm4.4.9c-.5.3-1.4-.3-1.1 1.5.5 0 1.5-.8 1.1-1.5m0 2.7c-.7.2-1.7.4-1.7 1.4.8 0 1.7-.5 1.7-1.4m-4.8 1.6c-.2.7.3 1.1.3 1.3h.1v-.1c.5 0-.4-1.1-.4-1.2m4.6.2c-1.9 0-3.1 1.2-.1.4 0-.2.1-.2.1-.4M57 62.4c-.1.1-.2.1-.2.1q-.1 0-.1.1c.3 0 .3 1.3.3 1.6.2 0 .2-.2.3-.3.3-.6 0-1-.3-1.5m-1.3 1.2c0 .1-.1.1 0 0-.3.1-.2 1.5-.2 1.7h.1c0-.6.6-1.1.1-1.7m4.5.2c-.3.3-.3.5-.3.9h.1v.1c.6-.4.6-.7.2-1m-.8.2c-.1.2-.2.3-.3.3-.2 0 0 .2 0 .3h.1c0 .2.2-.5.2-.6m-1.8 2.3c.9 0 1.4-.7 1.4-.2 0-1.2-1-.5-1.3-.2l-.1.4Zm-4.7.5c-.4.3-.5.8-.5 1.4v.1c.3-.1.6-1.2.5-1.5m5.6.9c-.6-.4-1.6-.5-1.9-.2.8.5 1.3.4 1.7.4l.2-.2Zm-6.6 3.5v.2c.2 0 .5.1.6.2.3.1.8 0 1-.2 0-.3-.4-.1-.6-.3h-.6l-.4.1Zm1.8-3.7c-.2.2-.5.2-.5.7v.1c.3-.1.5-.5.5-.8m2.8 1.4c-.2-1.4-1.7-.3-1.7.1.8.5 1.8.4 1.7-.1Zm-4.4 1.6c-1.6.1-.3.6.2.5.4-.4-.3-.5-.2-.5Zm9.5-16.2c-.5 0-.4.2-.9.7s.2 1.2.1 1.2.3.1.5-.5c.3-.7.3-1.4.3-1.4Zm-5.8-3.1c.2.7 1 .4 1.7.4-.2-.9-1.5-.8-1.9-.8m-1.5-1.4c.3.6 1 0 1.7.1-.2-.8-1.1-1-1.8-.4" class="cls-7"/>
          <path d="M31.4 55.6c0 .4.3.8.7.8-.1-.4-.3-.6-.7-.8m5.3 8.6c0 .4-.6.4.2 1.4h.1c0-.1.2-.1.3-.3-.1-.5-.2-.9-.6-1.1m2.9 3.2c0 .3.2.8.5.8v-.1c0-.5-.3-.6-.5-.7m-1.4 1.3c0-.4-1.3-1.5-1.5-.1-.1.5.9.6 1.5.1Zm2.6 2.2c.5 0 1.8-.4.2-.6v.1c.1 0-.6.1-.2.5Zm21.1-15.2c-.3.3-.6.4-.7.8.4-.1.7-.4.7-.8m-4.4 4c-.1.6.7 1 .7 1.4h.2V61c.5 0-.5-1.2-.6-1.3h-.3Zm3.4 2.8c-.9-.2-1.8.4-1.6.9.4-.1 1.6-.6 1.6-.9m-4.3 1.8c-.3.3-.5.6-.6 1.1.2.2.3.2.3.3h.1c.8-1.1.1-1 .2-1.4" class="cls-2"/>
        </g>
        <path id="wreath--ribbon" d="M44.7 69.8c-.6-.1-1.4 0-1.7-.4-.1-.1-.2-.2 0-.2.1-.1.1-.2.2-.3.4 0 1.6.3 1.5.9Zm4.7-.6h.9c0 .1.1.2-.1.2-.2.2-1.3.5-1.3.2q-.1-.1-.1-.2c.2-.1.4-.2.6-.2m-2.5.2c1 .1.6.3.5 1 0 .3.1.5.1.7-.2.1-1.7.2-1.7 0h-.1c0-.3-.1-1.5.2-1.5.3-.1.7-.1 1-.2m1.5.6c.5 0 1.3.1 1.3.7-.1.3-.1.5-.2.8-.3.1-.5.1-.8 0-.4-.2-.5-.3-.1-.3 0-.1.2-.5 0-.5-.2-.3-.1-.4-.2-.7M43 72c.1-1 .9-1.2 1.6-1.7 1.2.5-1.5 1.4-1.5 1.8L43 72Zm7.2-.7c.3.4 0 2.1-.3 2.1q-.1.1-.2.1v-.2c.1-.4.1-.8.2-1.2 0-.3.1-.5.3-.8M44.1 76h-.2c-.3-.8-1.1-1.5-1.1-2.3.6.3 1.2 1.4 1.3 2v.3Zm3.8 1.3v-.2c-.2-.5.1-1.3.3-1.7.5.4.4 1.2.1 1.6-.1.1 0 .3-.2.3h-.2Z" class="cls-3"/>
      </g>
      <g id="shield--star">
        <path id="star--bg" d="m46.7 60.8 5.7 4.2-2.2-6.7 5.7-4.2h-7l-2.2-6.8-2.2 6.8h-7l5.7 4.2L41 65l5.7-4.2z" class="cls-1"/>
        <path id="star--front" d="m49.9 58.2 5.2-3.8h-6.4l-2-6.1-2 6.1h-6.4l5.2 3.8-1.9 6.1 5.1-3.8 5.2 3.8-2-6.1z" class="cls-5"/>
      </g>
    </g>
  </g>
</svg>
